<svg width="114" height="115" viewBox="0 0 114 115" fill="none" xmlns="http://www.w3.org/2000/svg">
<g clip-path="url(#clip0_815_790)">
<rect y="0.5" width="114" height="114" rx="23.13" fill="#626262"/>
<g filter="url(#filter0_d_815_790)">
<path d="M82.4116 34.9939V80.0056C82.4116 81.0583 80.5584 82.9115 79.5058 82.9115H34.494C33.4415 82.9115 31.5882 81.0583 31.5882 80.0056V34.9939C31.5882 33.9413 33.4415 32.088 34.494 32.088H79.5058C80.5584 32.088 82.4116 33.9413 82.4116 34.9939Z" fill="url(#paint0_linear_815_790)"/>
<path d="M72.8824 32.088V25.7351V32.088Z" fill="url(#paint1_linear_815_790)"/>
<path d="M57 32.088V25.7351V32.088Z" fill="url(#paint2_linear_815_790)"/>
<path d="M41.1176 32.088V25.7351V32.088Z" fill="url(#paint3_linear_815_790)"/>
<path d="M41.1176 82.9115V89.2645V82.9115Z" fill="url(#paint4_linear_815_790)"/>
<path d="M57 82.9115V89.2645V82.9115Z" fill="url(#paint5_linear_815_790)"/>
<path d="M72.8824 82.9115V89.2645V82.9115Z" fill="url(#paint6_linear_815_790)"/>
<path d="M82.4118 73.3821H88.7647H82.4118Z" fill="url(#paint7_linear_815_790)"/>
<path d="M82.4118 57.4998H88.7647H82.4118Z" fill="url(#paint8_linear_815_790)"/>
<path d="M82.4118 41.6175H88.7647H82.4118Z" fill="url(#paint9_linear_815_790)"/>
<path d="M31.5883 73.3821H25.2354H31.5883Z" fill="url(#paint10_linear_815_790)"/>
<path d="M31.5883 57.4998H25.2354H31.5883Z" fill="url(#paint11_linear_815_790)"/>
<path d="M31.5883 41.6175H25.2354H31.5883Z" fill="url(#paint12_linear_815_790)"/>
<path d="M72.8824 32.088V25.7351M57 32.088V25.7351M41.1176 32.088V25.7351M41.1176 82.9115V89.2645M57 82.9115V89.2645M72.8824 82.9115V89.2645M82.4118 73.3821H88.7647M82.4118 57.4998H88.7647M82.4118 41.6175H88.7647M31.5883 73.3821H25.2354M31.5883 57.4998H25.2354M31.5883 41.6175H25.2354M82.4116 34.9939V80.0056C82.4116 81.0583 80.5584 82.9115 79.5058 82.9115H34.494C33.4415 82.9115 31.5882 81.0583 31.5882 80.0056V34.9939C31.5882 33.9413 33.4415 32.088 34.494 32.088H79.5058C80.5584 32.088 82.4116 33.9413 82.4116 34.9939Z" stroke="url(#paint13_linear_815_790)" stroke-width="3" stroke-linecap="round" stroke-linejoin="round"/>
</g>
<g filter="url(#filter1_i_815_790)">
<path d="M50.1711 58.7392V58.8941C50.1711 59.0748 50.7605 59.1652 51.9394 59.1652H53.0366C54.1122 59.1652 54.65 59.0834 54.65 58.9199V58.765C54.65 57.9992 54.0434 56.0372 52.83 52.8791C52.6665 52.4489 52.5547 52.2338 52.4944 52.2338C52.4772 52.2338 52.4299 52.3284 52.3525 52.5177C52.2836 52.6984 52.1976 52.9007 52.0943 53.1244C50.8121 55.9038 50.1711 57.7754 50.1711 58.7392ZM60.3939 64.4573V64.7154C60.3939 65.4899 60.1745 66.0191 59.7356 66.3031C59.4516 66.4838 58.9655 66.5741 58.277 66.5741H57.9673C57.2616 66.5741 56.7884 66.3633 56.5474 65.9416C56.427 65.7351 56.2936 65.1328 56.1473 64.1346C56.001 63.1364 55.7472 62.448 55.3857 62.0694C55.0243 61.6907 54.3445 61.5014 53.3463 61.5014C51.0746 61.5014 49.7408 61.6778 49.345 62.0306C48.9491 62.3834 48.6652 63.102 48.4931 64.1862C48.321 65.2618 48.1919 65.8642 48.1059 65.9933C47.8821 66.3375 47.4347 66.5096 46.7635 66.5096C46.0923 66.5096 45.6276 66.3289 45.3694 65.9675C45.1199 65.606 44.9951 65.1285 44.9951 64.5347C44.9951 64.268 45.3565 63.4118 46.0794 61.9661C46.1482 61.837 46.7979 59.9912 48.0284 56.4287C49.2589 52.8576 50.042 50.7236 50.3776 50.0266C50.7218 49.3209 51.0531 48.8692 51.3715 48.6713C51.6899 48.4733 52.1631 48.3744 52.7913 48.3744C53.4281 48.3744 53.8885 48.5293 54.1724 48.8391C54.4564 49.1402 54.8178 49.7641 55.2567 50.7107C55.7041 51.6572 56.3151 53.2104 57.0895 55.3703C57.8726 57.5302 58.4448 59.1652 58.8063 60.2752C59.1677 61.3767 59.3785 62.0005 59.4387 62.1468C60.0755 63.6097 60.3939 64.3798 60.3939 64.4573Z" fill="url(#paint14_linear_815_790)"/>
<path d="M50.1711 58.7392V58.8941C50.1711 59.0748 50.7605 59.1652 51.9394 59.1652H53.0366C54.1122 59.1652 54.65 59.0834 54.65 58.9199V58.765C54.65 57.9992 54.0434 56.0372 52.83 52.8791C52.6665 52.4489 52.5547 52.2338 52.4944 52.2338C52.4772 52.2338 52.4299 52.3284 52.3525 52.5177C52.2836 52.6984 52.1976 52.9007 52.0943 53.1244C50.8121 55.9038 50.1711 57.7754 50.1711 58.7392ZM60.3939 64.4573V64.7154C60.3939 65.4899 60.1745 66.0191 59.7356 66.3031C59.4516 66.4838 58.9655 66.5741 58.277 66.5741H57.9673C57.2616 66.5741 56.7884 66.3633 56.5474 65.9416C56.427 65.7351 56.2936 65.1328 56.1473 64.1346C56.001 63.1364 55.7472 62.448 55.3857 62.0694C55.0243 61.6907 54.3445 61.5014 53.3463 61.5014C51.0746 61.5014 49.7408 61.6778 49.345 62.0306C48.9491 62.3834 48.6652 63.102 48.4931 64.1862C48.321 65.2618 48.1919 65.8642 48.1059 65.9933C47.8821 66.3375 47.4347 66.5096 46.7635 66.5096C46.0923 66.5096 45.6276 66.3289 45.3694 65.9675C45.1199 65.606 44.9951 65.1285 44.9951 64.5347C44.9951 64.268 45.3565 63.4118 46.0794 61.9661C46.1482 61.837 46.7979 59.9912 48.0284 56.4287C49.2589 52.8576 50.042 50.7236 50.3776 50.0266C50.7218 49.3209 51.0531 48.8692 51.3715 48.6713C51.6899 48.4733 52.1631 48.3744 52.7913 48.3744C53.4281 48.3744 53.8885 48.5293 54.1724 48.8391C54.4564 49.1402 54.8178 49.7641 55.2567 50.7107C55.7041 51.6572 56.3151 53.2104 57.0895 55.3703C57.8726 57.5302 58.4448 59.1652 58.8063 60.2752C59.1677 61.3767 59.3785 62.0005 59.4387 62.1468C60.0755 63.6097 60.3939 64.3798 60.3939 64.4573Z" fill="#4E4E4E"/>
<path d="M63.4163 66.2385C63.0119 66.0062 62.8097 65.6921 62.8097 65.2963C62.8097 64.8918 62.9646 64.4358 63.2744 63.9281C63.5927 63.4118 63.7907 62.8696 63.8681 62.3017C63.9456 61.7252 63.9843 60.0515 63.9843 57.2806C63.9843 54.5098 63.9542 52.9093 63.8939 52.479C63.8337 52.0402 63.6315 51.5583 63.2873 51.0334C62.9431 50.5084 62.771 50.0223 62.771 49.5748C62.771 49.1187 63.0076 48.8089 63.4809 48.6454C63.9542 48.4733 64.7157 48.3873 65.7655 48.3873H66.2818C67.0047 48.3873 67.5339 48.5078 67.8695 48.7487C68.2137 48.9897 68.3858 49.3683 68.3858 49.8846C68.3858 50.0997 68.2438 50.5041 67.9598 51.0979C67.6759 51.683 67.5124 52.1864 67.4693 52.6081C67.4263 53.0211 67.4048 54.6905 67.4048 57.6162C67.4048 60.5334 67.4392 62.2501 67.5081 62.7664C67.5855 63.2827 67.7576 63.7775 68.0244 64.2507C68.2997 64.7154 68.4374 65.1672 68.4374 65.606C68.4374 66.2772 67.7619 66.6128 66.4109 66.6128H65.8946C65.5504 66.5956 65.1503 66.587 64.6942 66.587C64.2467 66.587 63.8208 66.4709 63.4163 66.2385Z" fill="url(#paint15_linear_815_790)"/>
<path d="M63.4163 66.2385C63.0119 66.0062 62.8097 65.6921 62.8097 65.2963C62.8097 64.8918 62.9646 64.4358 63.2744 63.9281C63.5927 63.4118 63.7907 62.8696 63.8681 62.3017C63.9456 61.7252 63.9843 60.0515 63.9843 57.2806C63.9843 54.5098 63.9542 52.9093 63.8939 52.479C63.8337 52.0402 63.6315 51.5583 63.2873 51.0334C62.9431 50.5084 62.771 50.0223 62.771 49.5748C62.771 49.1187 63.0076 48.8089 63.4809 48.6454C63.9542 48.4733 64.7157 48.3873 65.7655 48.3873H66.2818C67.0047 48.3873 67.5339 48.5078 67.8695 48.7487C68.2137 48.9897 68.3858 49.3683 68.3858 49.8846C68.3858 50.0997 68.2438 50.5041 67.9598 51.0979C67.6759 51.683 67.5124 52.1864 67.4693 52.6081C67.4263 53.0211 67.4048 54.6905 67.4048 57.6162C67.4048 60.5334 67.4392 62.2501 67.5081 62.7664C67.5855 63.2827 67.7576 63.7775 68.0244 64.2507C68.2997 64.7154 68.4374 65.1672 68.4374 65.606C68.4374 66.2772 67.7619 66.6128 66.4109 66.6128H65.8946C65.5504 66.5956 65.1503 66.587 64.6942 66.587C64.2467 66.587 63.8208 66.4709 63.4163 66.2385Z" fill="#4E4E4E"/>
</g>
<g filter="url(#filter2_df_815_790)">
<rect x="2.5" y="3" width="109" height="109" rx="20.63" stroke="url(#paint16_linear_815_790)" stroke-width="5"/>
</g>
</g>
<defs>
<filter id="filter0_d_815_790" x="18.7354" y="19.2351" width="82.5293" height="82.5294" filterUnits="userSpaceOnUse" color-interpolation-filters="sRGB">
<feFlood flood-opacity="0" result="BackgroundImageFix"/>
<feColorMatrix in="SourceAlpha" type="matrix" values="0 0 0 0 0 0 0 0 0 0 0 0 0 0 0 0 0 0 127 0" result="hardAlpha"/>
<feOffset dx="3" dy="3"/>
<feGaussianBlur stdDeviation="4"/>
<feColorMatrix type="matrix" values="0 0 0 0 0 0 0 0 0 0 0 0 0 0 0 0 0 0 0.17 0"/>
<feBlend mode="normal" in2="BackgroundImageFix" result="effect1_dropShadow_815_790"/>
<feBlend mode="normal" in="SourceGraphic" in2="effect1_dropShadow_815_790" result="shape"/>
</filter>
<filter id="filter1_i_815_790" x="44.9951" y="48.3744" width="24.4424" height="19.2385" filterUnits="userSpaceOnUse" color-interpolation-filters="sRGB">
<feFlood flood-opacity="0" result="BackgroundImageFix"/>
<feBlend mode="normal" in="SourceGraphic" in2="BackgroundImageFix" result="shape"/>
<feColorMatrix in="SourceAlpha" type="matrix" values="0 0 0 0 0 0 0 0 0 0 0 0 0 0 0 0 0 0 127 0" result="hardAlpha"/>
<feOffset dx="1" dy="1"/>
<feGaussianBlur stdDeviation="1"/>
<feComposite in2="hardAlpha" operator="arithmetic" k2="-1" k3="1"/>
<feColorMatrix type="matrix" values="0 0 0 0 0 0 0 0 0 0 0 0 0 0 0 0 0 0 1 0"/>
<feBlend mode="normal" in2="shape" result="effect1_innerShadow_815_790"/>
</filter>
<filter id="filter2_df_815_790" x="-9" y="-8.5" width="138" height="138" filterUnits="userSpaceOnUse" color-interpolation-filters="sRGB">
<feFlood flood-opacity="0" result="BackgroundImageFix"/>
<feColorMatrix in="SourceAlpha" type="matrix" values="0 0 0 0 0 0 0 0 0 0 0 0 0 0 0 0 0 0 127 0" result="hardAlpha"/>
<feMorphology radius="3" operator="dilate" in="SourceAlpha" result="effect1_dropShadow_815_790"/>
<feOffset dx="3" dy="3"/>
<feGaussianBlur stdDeviation="4.5"/>
<feColorMatrix type="matrix" values="0 0 0 0 0 0 0 0 0 0 0 0 0 0 0 0 0 0 0.07 0"/>
<feBlend mode="normal" in2="BackgroundImageFix" result="effect1_dropShadow_815_790"/>
<feBlend mode="normal" in="SourceGraphic" in2="effect1_dropShadow_815_790" result="shape"/>
<feGaussianBlur stdDeviation="0.5" result="effect2_foregroundBlur_815_790"/>
</filter>
<linearGradient id="paint0_linear_815_790" x1="25.2354" y1="-33.2651" x2="116.858" y2="-16.714" gradientUnits="userSpaceOnUse">
<stop stop-color="#1E6EA9"/>
<stop offset="0.520833" stop-color="#4BC270"/>
<stop offset="1" stop-color="#FFCB3C"/>
</linearGradient>
<linearGradient id="paint1_linear_815_790" x1="25.2354" y1="-33.2651" x2="116.858" y2="-16.714" gradientUnits="userSpaceOnUse">
<stop stop-color="#1E6EA9"/>
<stop offset="0.520833" stop-color="#4BC270"/>
<stop offset="1" stop-color="#FFCB3C"/>
</linearGradient>
<linearGradient id="paint2_linear_815_790" x1="25.2354" y1="-33.2651" x2="116.858" y2="-16.714" gradientUnits="userSpaceOnUse">
<stop stop-color="#1E6EA9"/>
<stop offset="0.520833" stop-color="#4BC270"/>
<stop offset="1" stop-color="#FFCB3C"/>
</linearGradient>
<linearGradient id="paint3_linear_815_790" x1="25.2354" y1="-33.2651" x2="116.858" y2="-16.714" gradientUnits="userSpaceOnUse">
<stop stop-color="#1E6EA9"/>
<stop offset="0.520833" stop-color="#4BC270"/>
<stop offset="1" stop-color="#FFCB3C"/>
</linearGradient>
<linearGradient id="paint4_linear_815_790" x1="25.2354" y1="-33.2651" x2="116.858" y2="-16.714" gradientUnits="userSpaceOnUse">
<stop stop-color="#1E6EA9"/>
<stop offset="0.520833" stop-color="#4BC270"/>
<stop offset="1" stop-color="#FFCB3C"/>
</linearGradient>
<linearGradient id="paint5_linear_815_790" x1="25.2354" y1="-33.2651" x2="116.858" y2="-16.714" gradientUnits="userSpaceOnUse">
<stop stop-color="#1E6EA9"/>
<stop offset="0.520833" stop-color="#4BC270"/>
<stop offset="1" stop-color="#FFCB3C"/>
</linearGradient>
<linearGradient id="paint6_linear_815_790" x1="25.2354" y1="-33.2651" x2="116.858" y2="-16.714" gradientUnits="userSpaceOnUse">
<stop stop-color="#1E6EA9"/>
<stop offset="0.520833" stop-color="#4BC270"/>
<stop offset="1" stop-color="#FFCB3C"/>
</linearGradient>
<linearGradient id="paint7_linear_815_790" x1="25.2354" y1="-33.2651" x2="116.858" y2="-16.714" gradientUnits="userSpaceOnUse">
<stop stop-color="#1E6EA9"/>
<stop offset="0.520833" stop-color="#4BC270"/>
<stop offset="1" stop-color="#FFCB3C"/>
</linearGradient>
<linearGradient id="paint8_linear_815_790" x1="25.2354" y1="-33.2651" x2="116.858" y2="-16.714" gradientUnits="userSpaceOnUse">
<stop stop-color="#1E6EA9"/>
<stop offset="0.520833" stop-color="#4BC270"/>
<stop offset="1" stop-color="#FFCB3C"/>
</linearGradient>
<linearGradient id="paint9_linear_815_790" x1="25.2354" y1="-33.2651" x2="116.858" y2="-16.714" gradientUnits="userSpaceOnUse">
<stop stop-color="#1E6EA9"/>
<stop offset="0.520833" stop-color="#4BC270"/>
<stop offset="1" stop-color="#FFCB3C"/>
</linearGradient>
<linearGradient id="paint10_linear_815_790" x1="25.2354" y1="-33.2651" x2="116.858" y2="-16.714" gradientUnits="userSpaceOnUse">
<stop stop-color="#1E6EA9"/>
<stop offset="0.520833" stop-color="#4BC270"/>
<stop offset="1" stop-color="#FFCB3C"/>
</linearGradient>
<linearGradient id="paint11_linear_815_790" x1="25.2354" y1="-33.2651" x2="116.858" y2="-16.714" gradientUnits="userSpaceOnUse">
<stop stop-color="#1E6EA9"/>
<stop offset="0.520833" stop-color="#4BC270"/>
<stop offset="1" stop-color="#FFCB3C"/>
</linearGradient>
<linearGradient id="paint12_linear_815_790" x1="25.2354" y1="-33.2651" x2="116.858" y2="-16.714" gradientUnits="userSpaceOnUse">
<stop stop-color="#1E6EA9"/>
<stop offset="0.520833" stop-color="#4BC270"/>
<stop offset="1" stop-color="#FFCB3C"/>
</linearGradient>
<linearGradient id="paint13_linear_815_790" x1="53.263" y1="0.988198" x2="112.228" y2="21.425" gradientUnits="userSpaceOnUse">
<stop stop-color="#1E6EA9"/>
<stop offset="0.520833" stop-color="#4BC270"/>
<stop offset="1" stop-color="#FFCB3C"/>
</linearGradient>
<linearGradient id="paint14_linear_815_790" x1="44.9951" y1="31.4362" x2="78.1212" y2="39.1276" gradientUnits="userSpaceOnUse">
<stop stop-color="#1E6EA9"/>
<stop offset="0.520833" stop-color="#4BC270"/>
<stop offset="1" stop-color="#FFCB3C"/>
</linearGradient>
<linearGradient id="paint15_linear_815_790" x1="44.9951" y1="31.4362" x2="78.1212" y2="39.1276" gradientUnits="userSpaceOnUse">
<stop stop-color="#1E6EA9"/>
<stop offset="0.520833" stop-color="#4BC270"/>
<stop offset="1" stop-color="#FFCB3C"/>
</linearGradient>
<linearGradient id="paint16_linear_815_790" x1="3.06046" y1="0.500012" x2="50.5456" y2="93.878" gradientUnits="userSpaceOnUse">
<stop stop-color="white" stop-opacity="0.42"/>
<stop offset="1" stop-color="white" stop-opacity="0"/>
</linearGradient>
<clipPath id="clip0_815_790">
<rect y="0.5" width="114" height="114" rx="23.13" fill="white"/>
</clipPath>
</defs>
</svg>
