<svg width="134" height="139" viewBox="0 0 134 139" fill="none" xmlns="http://www.w3.org/2000/svg">
<path fill-rule="evenodd" clip-rule="evenodd" d="M114.649 20.1136L112.522 13.4865C112.098 12.1683 111.169 11.0722 109.937 10.4393C108.706 9.80649 107.274 9.68873 105.955 10.112L96.7599 13.0643C93.7337 14.0359 93.3929 18.1814 96.2198 19.6342C99.0467 21.087 98.7059 25.2324 95.6796 26.2041L93.2742 26.9764C92.109 27.3505 90.843 27.2464 89.7546 26.687L78.1733 20.7351C76.8672 20.0638 75.348 19.9389 73.9498 20.3878L69.4231 21.8412C66.3969 22.8128 66.0561 26.9582 68.883 28.4111C71.7099 29.8639 71.3691 34.0093 68.3429 34.9809L65.9374 35.7532C64.7722 36.1273 63.5062 36.0232 62.4178 35.4639L50.8366 29.5119C49.5305 28.8407 48.0112 28.7158 46.6131 29.1647L42.0864 30.6181C39.0602 31.5897 38.7193 35.7351 41.5462 37.1879C44.3731 38.6408 44.0323 42.7862 41.0061 43.7578L38.6006 44.5301C37.4355 44.9042 36.1695 44.8001 35.0811 44.2408L26.1029 39.6266C23.1301 38.0988 19.6721 37.8145 16.4897 38.8363C15.1714 39.2595 14.0754 40.1891 13.4425 41.4204C12.8097 42.6518 12.6919 44.0842 13.1151 45.4024L14.6318 50.1263C14.42 50.637 14.2886 51.1827 14.2474 51.7444L9.91442 110.748C9.81302 112.129 10.2643 113.493 11.1689 114.541C12.0736 115.589 13.3575 116.235 14.7383 116.336L108.45 123.218C109.831 123.32 111.195 122.868 112.243 121.964C113.291 121.059 113.937 119.775 114.038 118.394L118.371 59.3908C118.473 58.01 118.021 56.6455 117.117 55.5975C116.212 54.5494 114.928 53.9037 113.547 53.8023L42.9461 48.6176L111.275 26.6797C112.593 26.2565 113.689 25.3269 114.322 24.0955C114.955 22.8641 115.073 21.4318 114.649 20.1136Z" fill="#626262"/>
<g filter="url(#filter0_df_815_776)">
<mask id="path-2-inside-1_815_776" fill="white">
<path fill-rule="evenodd" clip-rule="evenodd" d="M114.649 20.1136L112.522 13.4865C112.098 12.1683 111.169 11.0722 109.937 10.4393C108.706 9.80649 107.274 9.68873 105.955 10.112L96.7599 13.0643C93.7337 14.0359 93.3929 18.1814 96.2198 19.6342C99.0467 21.087 98.7059 25.2324 95.6796 26.2041L93.2742 26.9764C92.109 27.3505 90.843 27.2464 89.7546 26.687L78.1733 20.7351C76.8672 20.0638 75.348 19.9389 73.9498 20.3878L69.4231 21.8412C66.3969 22.8128 66.0561 26.9582 68.883 28.4111C71.7099 29.8639 71.3691 34.0093 68.3429 34.9809L65.9374 35.7532C64.7722 36.1273 63.5062 36.0232 62.4178 35.4639L50.8366 29.5119C49.5305 28.8407 48.0112 28.7158 46.6131 29.1647L42.0864 30.6181C39.0602 31.5897 38.7193 35.7351 41.5462 37.1879C44.3731 38.6408 44.0323 42.7862 41.0061 43.7578L38.6006 44.5301C37.4355 44.9042 36.1695 44.8001 35.0811 44.2408L26.1029 39.6266C23.1301 38.0988 19.6721 37.8145 16.4897 38.8363C15.1714 39.2595 14.0754 40.1891 13.4425 41.4204C12.8097 42.6518 12.6919 44.0842 13.1151 45.4024L14.6318 50.1263C14.42 50.637 14.2886 51.1827 14.2474 51.7444L9.91442 110.748C9.81302 112.129 10.2643 113.493 11.1689 114.541C12.0736 115.589 13.3575 116.235 14.7383 116.336L108.45 123.218C109.831 123.32 111.195 122.868 112.243 121.964C113.291 121.059 113.937 119.775 114.038 118.394L118.371 59.3908C118.473 58.01 118.021 56.6455 117.117 55.5975C116.212 54.5494 114.928 53.9037 113.547 53.8023L42.9461 48.6176L111.275 26.6797C112.593 26.2565 113.689 25.3269 114.322 24.0955C114.955 22.8641 115.073 21.4318 114.649 20.1136Z"/>
</mask>
<path d="M112.522 13.4865L117.282 11.958V11.958L112.522 13.4865ZM114.649 20.1136L109.889 21.6421V21.6421L114.649 20.1136ZM105.955 10.112L104.427 5.35131V5.35132L105.955 10.112ZM96.7599 13.0643L98.2884 17.825V17.825L96.7599 13.0643ZM95.6796 26.2041L94.1512 21.4434L95.6796 26.2041ZM93.2742 26.9764L94.8026 31.737V31.737L93.2742 26.9764ZM89.7546 26.687L87.4691 31.1341L87.4691 31.1341L89.7546 26.687ZM78.1733 20.7351L80.4588 16.288L80.4588 16.288L78.1733 20.7351ZM73.9498 20.3878L75.4783 25.1485H75.4783L73.9498 20.3878ZM69.4231 21.8412L70.9516 26.6018L69.4231 21.8412ZM68.3429 34.9809L66.8144 30.2203H66.8144L68.3429 34.9809ZM65.9374 35.7532L67.4659 40.5139L67.4659 40.5139L65.9374 35.7532ZM62.4178 35.4639L64.7033 31.0168L62.4178 35.4639ZM50.8366 29.5119L48.5511 33.959L48.5511 33.959L50.8366 29.5119ZM46.6131 29.1647L45.0846 24.4041L45.0846 24.4041L46.6131 29.1647ZM42.0864 30.6181L43.6149 35.3787L42.0864 30.6181ZM41.0061 43.7578L39.4776 38.9972H39.4776L41.0061 43.7578ZM38.6006 44.5301L37.0722 39.7695H37.0722L38.6006 44.5301ZM35.0811 44.2408L37.3666 39.7937L37.3665 39.7937L35.0811 44.2408ZM26.1029 39.6266L23.8174 44.0737H23.8174L26.1029 39.6266ZM16.4897 38.8363L14.9612 34.0756H14.9612L16.4897 38.8363ZM13.4425 41.4204L8.99543 39.135L8.99543 39.135L13.4425 41.4204ZM13.1151 45.4024L17.8758 43.8739H17.8758L13.1151 45.4024ZM14.6318 50.1263L19.2501 52.0424L19.9538 50.3463L19.3925 48.5979L14.6318 50.1263ZM14.2474 51.7444L9.2608 51.3782H9.2608L14.2474 51.7444ZM9.91442 110.748L14.901 111.114L9.91442 110.748ZM11.1689 114.541L14.9539 111.274L11.1689 114.541ZM14.7383 116.336L15.1045 111.35H15.1045L14.7383 116.336ZM108.45 123.218L108.084 128.205H108.084L108.45 123.218ZM114.038 118.394L109.052 118.028V118.028L114.038 118.394ZM118.371 59.3908L123.358 59.757V59.757L118.371 59.3908ZM113.547 53.8023L113.914 48.8157H113.914L113.547 53.8023ZM42.9461 48.6176L41.4176 43.857L42.5799 53.6042L42.9461 48.6176ZM111.275 26.6797L109.746 21.919V21.919L111.275 26.6797ZM107.761 15.015L109.889 21.6421L119.41 18.5851L117.282 11.958L107.761 15.015ZM107.652 14.8864C107.704 14.9131 107.743 14.9593 107.761 15.015L117.282 11.958C116.454 9.37722 114.634 7.23126 112.223 5.99225L107.652 14.8864ZM107.484 14.8726C107.54 14.8548 107.6 14.8597 107.652 14.8864L112.223 5.99225C109.812 4.75325 107.008 4.52271 104.427 5.35131L107.484 14.8726ZM98.2884 17.825L107.484 14.8726L104.427 5.35132L95.2314 8.30367L98.2884 17.825ZM98.5053 15.1871C99.6403 15.7704 99.5035 17.4349 98.2884 17.825L95.2314 8.30367C87.9639 10.637 87.1455 20.5923 93.9343 24.0813L98.5053 15.1871ZM97.2081 30.9647C104.476 28.6314 105.294 18.6761 98.5053 15.1871L93.9343 24.0813C92.7993 23.4979 92.9361 21.8335 94.1512 21.4434L97.2081 30.9647ZM94.8026 31.737L97.2081 30.9647L94.1512 21.4434L91.7457 22.2157L94.8026 31.737ZM87.4691 31.1341C89.7369 32.2996 92.3749 32.5165 94.8026 31.737L91.7457 22.2157C91.8431 22.1844 91.949 22.1931 92.0401 22.2399L87.4691 31.1341ZM75.8878 25.1821L87.4691 31.1341L92.0401 22.2399L80.4588 16.288L75.8878 25.1821ZM75.4783 25.1485C75.6139 25.1049 75.7612 25.1171 75.8878 25.1821L80.4588 16.288C77.9733 15.0106 75.0821 14.7729 72.4214 15.6272L75.4783 25.1485ZM70.9516 26.6018L75.4783 25.1485L72.4214 15.6272L67.8947 17.0805L70.9516 26.6018ZM71.1685 23.964C72.3035 24.5473 72.1667 26.2117 70.9516 26.6018L67.8947 17.0805C60.6271 19.4139 59.8087 29.3692 66.5975 32.8581L71.1685 23.964ZM69.8713 39.7416C77.1388 37.4082 77.9573 27.453 71.1685 23.964L66.5975 32.8581C65.4625 32.2748 65.5993 30.6104 66.8144 30.2203L69.8713 39.7416ZM67.4659 40.5139L69.8713 39.7416L66.8144 30.2203L64.4089 30.9926L67.4659 40.5139ZM60.1323 39.911C62.4002 41.0765 65.0381 41.2934 67.4659 40.5139L64.4089 30.9926C64.5064 30.9613 64.6123 30.97 64.7033 31.0168L60.1323 39.911ZM48.5511 33.959L60.1323 39.911L64.7033 31.0168L53.122 25.0649L48.5511 33.959ZM48.1415 33.9253C48.2771 33.8818 48.4244 33.8939 48.5511 33.959L53.1221 25.0649C50.6365 23.7875 47.7454 23.5498 45.0846 24.4041L48.1415 33.9253ZM43.6149 35.3787L48.1415 33.9253L45.0846 24.4041L40.5579 25.8574L43.6149 35.3787ZM43.8317 32.7409C44.9668 33.3242 44.8299 34.9886 43.6149 35.3787L40.5579 25.8574C33.2904 28.1908 32.4719 38.146 39.2608 41.635L43.8317 32.7409ZM42.5346 48.5185C49.8021 46.1851 50.6206 36.2298 43.8317 32.7409L39.2608 41.635C38.1257 41.0517 38.2626 39.3873 39.4776 38.9972L42.5346 48.5185ZM40.1291 49.2908L42.5346 48.5185L39.4776 38.9972L37.0722 39.7695L40.1291 49.2908ZM32.7956 48.6878C35.0634 49.8534 37.7014 50.0702 40.1291 49.2908L37.0722 39.7695C37.1696 39.7382 37.2755 39.7469 37.3666 39.7937L32.7956 48.6878ZM23.8174 44.0737L32.7956 48.6878L37.3665 39.7937L28.3884 35.1795L23.8174 44.0737ZM18.0181 43.5969C19.938 42.9805 22.0241 43.152 23.8174 44.0737L28.3884 35.1795C24.2362 33.0456 19.4062 32.6485 14.9612 34.0756L18.0181 43.5969ZM17.8896 43.7059C17.9163 43.654 17.9625 43.6148 18.0181 43.5969L14.9612 34.0756C12.3804 34.9042 10.2344 36.7241 8.99543 39.135L17.8896 43.7059ZM17.8758 43.8739C17.8579 43.8183 17.8629 43.7579 17.8896 43.7059L8.99543 39.135C7.75643 41.5458 7.52588 44.35 8.35449 46.9309L17.8758 43.8739ZM19.3925 48.5979L17.8758 43.8739L8.35449 46.9309L9.87118 51.6548L19.3925 48.5979ZM19.2339 52.1106C19.2357 52.0867 19.2412 52.064 19.2501 52.0424L10.0135 48.2102C9.59874 49.21 9.34155 50.2786 9.2608 51.3782L19.2339 52.1106ZM14.901 111.114L19.2339 52.1106L9.2608 51.3782L4.92785 110.382L14.901 111.114ZM14.9539 111.274C14.9157 111.23 14.8967 111.172 14.901 111.114L4.92785 110.382C4.72933 113.085 5.61283 115.756 7.38396 117.808L14.9539 111.274ZM15.1045 111.35C15.0462 111.346 14.9921 111.318 14.9539 111.274L7.38396 117.808C9.15511 119.86 11.6688 121.125 14.3721 121.323L15.1045 111.35ZM108.816 118.232L15.1045 111.35L14.3721 121.323L108.084 128.205L108.816 118.232ZM108.976 118.179C108.932 118.217 108.874 118.236 108.816 118.232L108.084 128.205C110.787 128.403 113.458 127.52 115.51 125.749L108.976 118.179ZM109.052 118.028C109.047 118.086 109.02 118.141 108.976 118.179L115.51 125.749C117.562 123.978 118.826 121.464 119.025 118.76L109.052 118.028ZM113.385 59.0246L109.052 118.028L119.025 118.76L123.358 59.757L113.385 59.0246ZM113.332 58.8646C113.37 58.9088 113.389 58.9663 113.385 59.0246L123.358 59.757C123.556 57.0537 122.673 54.3823 120.902 52.3304L113.332 58.8646ZM113.181 58.7888C113.239 58.7931 113.294 58.8204 113.332 58.8646L120.902 52.3304C119.131 50.2785 116.617 49.0142 113.914 48.8157L113.181 58.7888ZM42.5799 53.6042L113.181 58.7888L113.914 48.8157L43.3123 43.6311L42.5799 53.6042ZM109.746 21.919L41.4176 43.857L44.4745 53.3783L112.803 31.4403L109.746 21.919ZM109.875 21.81C109.848 21.862 109.802 21.9012 109.746 21.919L112.803 31.4403C115.384 30.6117 117.53 28.7919 118.769 26.381L109.875 21.81ZM109.889 21.6421C109.906 21.6977 109.902 21.7581 109.875 21.81L118.769 26.381C120.008 23.9702 120.239 21.1659 119.41 18.5851L109.889 21.6421Z" fill="url(#paint0_linear_815_776)" fill-opacity="0.68" mask="url(#path-2-inside-1_815_776)"/>
</g>
<g filter="url(#filter1_d_815_776)">
<path d="M55.5642 84.8473C55.3555 87.1265 53.2852 88.8 50.9401 88.5853C48.595 88.3705 46.8631 86.3488 47.0718 84.0696C47.2805 81.7905 49.3508 80.117 51.6959 80.3317C54.041 80.5465 55.7729 82.5682 55.5642 84.8473Z" fill="url(#paint1_linear_815_776)"/>
<path d="M68.51 86.0329C68.3013 88.312 66.231 89.9855 63.8859 89.7708C61.5408 89.556 59.8089 87.5343 60.0176 85.2552C60.2263 82.976 62.2966 81.3025 64.6417 81.5172C66.9868 81.732 68.7187 83.7537 68.51 86.0329Z" fill="url(#paint2_linear_815_776)"/>
<path d="M81.4558 87.2184C81.2471 89.4975 79.1768 91.1711 76.8317 90.9563C74.4866 90.7416 72.7547 88.7198 72.9635 86.4407C73.1722 84.1615 75.2425 82.488 77.5876 82.7028C79.9327 82.9175 81.6645 84.9392 81.4558 87.2184Z" fill="url(#paint3_linear_815_776)"/>
</g>
<defs>
<filter id="filter0_df_815_776" x="0.900391" y="0.862061" width="132.485" height="137.37" filterUnits="userSpaceOnUse" color-interpolation-filters="sRGB">
<feFlood flood-opacity="0" result="BackgroundImageFix"/>
<feColorMatrix in="SourceAlpha" type="matrix" values="0 0 0 0 0 0 0 0 0 0 0 0 0 0 0 0 0 0 127 0" result="hardAlpha"/>
<feMorphology radius="3" operator="dilate" in="SourceAlpha" result="effect1_dropShadow_815_776"/>
<feOffset dx="3" dy="3"/>
<feGaussianBlur stdDeviation="4.5"/>
<feColorMatrix type="matrix" values="0 0 0 0 0 0 0 0 0 0 0 0 0 0 0 0 0 0 0.07 0"/>
<feBlend mode="normal" in2="BackgroundImageFix" result="effect1_dropShadow_815_776"/>
<feBlend mode="normal" in="SourceGraphic" in2="effect1_dropShadow_815_776" result="shape"/>
<feGaussianBlur stdDeviation="0.5" result="effect2_foregroundBlur_815_776"/>
</filter>
<filter id="filter1_d_815_776" x="42.0547" y="75.3132" width="50.418" height="26.6617" filterUnits="userSpaceOnUse" color-interpolation-filters="sRGB">
<feFlood flood-opacity="0" result="BackgroundImageFix"/>
<feColorMatrix in="SourceAlpha" type="matrix" values="0 0 0 0 0 0 0 0 0 0 0 0 0 0 0 0 0 0 127 0" result="hardAlpha"/>
<feOffset dx="3" dy="3"/>
<feGaussianBlur stdDeviation="4"/>
<feColorMatrix type="matrix" values="0 0 0 0 0 0 0 0 0 0 0 0 0 0 0 0 0 0 0.17 0"/>
<feBlend mode="normal" in2="BackgroundImageFix" result="effect1_dropShadow_815_776"/>
<feBlend mode="normal" in="SourceGraphic" in2="effect1_dropShadow_815_776" result="shape"/>
</filter>
<linearGradient id="paint0_linear_815_776" x1="12.8128" y1="9.86207" x2="93.727" y2="115.889" gradientUnits="userSpaceOnUse">
<stop stop-color="white" stop-opacity="0.42"/>
<stop offset="1" stop-color="white" stop-opacity="0"/>
</linearGradient>
<linearGradient id="paint1_linear_815_776" x1="48.1516" y1="72.2777" x2="78.5909" y2="99.8743" gradientUnits="userSpaceOnUse">
<stop stop-color="#1E6EA9"/>
<stop offset="0.520833" stop-color="#4BC270"/>
<stop offset="1" stop-color="#FFCB3C"/>
</linearGradient>
<linearGradient id="paint2_linear_815_776" x1="48.1516" y1="72.2777" x2="78.5909" y2="99.8743" gradientUnits="userSpaceOnUse">
<stop stop-color="#1E6EA9"/>
<stop offset="0.520833" stop-color="#4BC270"/>
<stop offset="1" stop-color="#FFCB3C"/>
</linearGradient>
<linearGradient id="paint3_linear_815_776" x1="48.1516" y1="72.2777" x2="78.5909" y2="99.8743" gradientUnits="userSpaceOnUse">
<stop stop-color="#1E6EA9"/>
<stop offset="0.520833" stop-color="#4BC270"/>
<stop offset="1" stop-color="#FFCB3C"/>
</linearGradient>
</defs>
</svg>
