<svg width="289" height="200" viewBox="0 0 289 200" fill="none" xmlns="http://www.w3.org/2000/svg">
<g filter="url(#filter0_d_851_412)">
<rect x="21.7144" y="93.2094" width="83.8889" height="35" rx="17.5" fill="white" shape-rendering="crispEdges"/>
<path opacity="0.7" d="M44.0054 113.244C44.0054 111.555 42.9212 110.711 40.7528 110.711L40.2463 110.729C39.7605 110.729 39.4198 110.634 39.2243 110.444C39.0288 110.255 38.9311 109.795 38.9311 109.067C38.9311 108.338 38.9992 107.595 39.1354 106.836C39.2776 106.072 39.4139 105.589 39.5442 105.388C39.6805 105.186 39.9027 105.053 40.2107 104.988C40.5188 104.923 41.0342 104.89 41.757 104.89C42.4798 104.89 43.0278 104.881 43.4011 104.863L44.2364 104.81C44.5326 104.786 44.7133 104.774 44.7785 104.774C45.3473 104.774 45.6316 104.94 45.6316 105.272C45.6316 105.776 45.3828 106.102 44.8852 106.25C44.6482 106.321 44.0261 106.371 43.0189 106.401C42.0118 106.43 41.4134 106.499 41.2238 106.605C41.0342 106.712 40.8624 106.934 40.7084 107.272C40.5544 107.609 40.4773 107.986 40.4773 108.4C40.4773 108.815 40.5247 109.064 40.6195 109.147C40.7143 109.224 41.0757 109.262 41.7037 109.262C43.6529 109.262 44.9562 109.964 45.6139 111.368C45.839 111.854 45.9516 112.411 45.9516 113.039C45.9516 114.23 45.5842 115.181 44.8496 115.892C44.4527 116.277 43.9817 116.57 43.4366 116.772C42.8916 116.979 42.3376 117.083 41.7748 117.083H41.4815C40.6817 117.083 39.9797 116.911 39.3754 116.567C38.777 116.224 38.4778 115.841 38.4778 115.421C38.4778 114.994 38.6674 114.781 39.0466 114.781C39.2125 114.781 39.5798 114.911 40.1485 115.172C40.7232 115.433 41.2979 115.563 41.8726 115.563C42.4472 115.563 42.9449 115.353 43.3655 114.932C43.7921 114.505 44.0054 113.943 44.0054 113.244ZM53.0521 107.254C53.0521 107.189 53.0402 107.156 53.0165 107.156C52.9928 107.156 52.6936 107.589 52.1189 108.454C51.5443 109.313 50.9459 110.178 50.3238 111.049C49.7018 111.919 49.3907 112.387 49.3907 112.453C49.3907 112.512 49.4914 112.541 49.6929 112.541H50.1194L50.1905 112.533H50.937C51.9619 112.533 52.5337 112.5 52.6521 112.435C52.7766 112.37 52.8388 112.186 52.8388 111.884C52.8506 111.777 52.8565 111.7 52.8565 111.653L52.8832 111.173V111.004L52.9188 110.364C52.9188 110.281 52.9188 110.198 52.9188 110.115L52.9987 108.596V108.445L53.0343 107.832L53.0521 107.458V107.254ZM53.8785 117.003C53.446 117.003 53.1261 116.866 52.9188 116.594C52.7173 116.321 52.6166 115.859 52.6166 115.207C52.6166 114.799 52.43 114.491 52.0567 114.283C51.4939 113.969 50.8185 113.812 50.0306 113.812L49.8351 113.803C49.7047 113.797 49.4796 113.795 49.1597 113.795C48.8397 113.795 48.585 113.738 48.3954 113.626C48.0814 113.442 47.9244 113.175 47.9244 112.826C47.9244 112.275 49.3344 110.118 52.1545 106.356C52.8773 105.397 53.4549 104.917 53.8874 104.917C54.3199 104.917 54.5895 105.05 54.6961 105.317C54.7731 105.506 54.8116 106.427 54.8116 108.08C54.8116 109.733 54.8738 110.779 54.9982 111.217C55.1286 111.65 55.3122 112.008 55.5492 112.293C55.6085 112.364 55.721 112.47 55.8869 112.613C56.0528 112.749 56.1357 112.867 56.1357 112.968V113.057C56.1357 113.43 55.9521 113.792 55.5848 114.141C55.2234 114.491 55.0427 114.728 55.0427 114.852L55.0871 115.483C55.0871 116.496 54.6842 117.003 53.8785 117.003ZM60.3747 107.129V107.396C60.3747 107.911 60.591 108.385 61.0234 108.818C61.4559 109.25 61.9388 109.467 62.472 109.467L62.5342 109.458C62.9785 109.458 63.3666 109.23 63.6983 108.774C64.0301 108.317 64.196 107.834 64.196 107.325V107.254C64.196 106.762 64.0331 106.336 63.7072 105.974C63.3814 105.613 62.9489 105.432 62.4098 105.432H62.1432C61.6811 105.432 61.2693 105.595 60.9079 105.921C60.5524 106.241 60.3747 106.644 60.3747 107.129ZM64.4271 113.652V113.332C64.4271 112.74 64.2138 112.23 63.7872 111.804C63.1829 111.2 62.5757 110.897 61.9654 110.897H61.6722C61.1923 110.897 60.7361 111.208 60.3036 111.831C60.0192 112.239 59.8771 112.734 59.8771 113.315L59.8682 113.395C59.8682 114.023 60.0666 114.556 60.4636 114.994C60.8664 115.427 61.3789 115.643 62.001 115.643H62.3209C62.9311 115.643 63.4347 115.444 63.8316 115.048C64.2286 114.651 64.4271 114.186 64.4271 113.652ZM65.8134 107.307C65.8134 108.012 65.4905 108.738 64.8447 109.484C64.5367 109.84 64.3826 110.05 64.3826 110.115C64.3826 110.181 64.4744 110.287 64.6581 110.435C65.6534 111.235 66.1511 112.207 66.1511 113.35V113.546C66.1511 114.458 65.8104 115.231 65.1291 115.865C64.7677 116.203 64.3293 116.463 63.8139 116.647C63.2984 116.825 62.8097 116.914 62.3476 116.914H61.7255C60.7598 116.914 59.9393 116.629 59.2639 116.061C58.8669 115.729 58.5826 115.359 58.4107 114.95C58.2389 114.541 58.153 114.159 58.153 113.803V113.412C58.153 112.518 58.5796 111.656 59.4327 110.826C59.7882 110.477 59.9659 110.287 59.9659 110.258C59.9659 110.222 59.8267 110.044 59.5482 109.724C58.9321 109.008 58.624 108.217 58.624 107.352C58.624 106.481 58.9647 105.758 59.646 105.183C60.3332 104.603 61.213 104.312 62.2854 104.312H62.4897C63.4732 104.312 64.273 104.582 64.8892 105.121C65.5053 105.654 65.8134 106.383 65.8134 107.307Z" fill="#7B7B7B"/>
<path opacity="0.5" d="M79.2035 104.325C78.5299 104.325 77.8672 104.522 77.2796 104.895C75.3988 106.091 74.7539 108.755 75.8466 110.835C76.8067 112.667 81.1273 116.032 82.4278 117.017C82.5639 117.119 82.7538 117.119 82.89 117.017C84.1904 116.028 88.5111 112.663 89.4712 110.835C90.5639 108.755 89.919 106.088 88.0382 104.895C87.4542 104.522 86.7914 104.325 86.1179 104.325C84.9392 104.325 83.8358 104.909 83.0906 105.924L82.6607 106.515L82.2308 105.924C81.4856 104.909 80.3857 104.325 79.2035 104.325Z" fill="#838383"/>
</g>
<g filter="url(#filter1_d_851_412)">
<rect x="121.869" y="128.209" width="81.8889" height="35" rx="17.5" fill="white" shape-rendering="crispEdges"/>
<path opacity="0.7" d="M139.223 141.818V141.721C139.223 141.501 139.463 141.244 139.943 140.948C141.057 140.266 141.8 139.926 142.174 139.926H142.316C142.612 139.926 142.808 140.032 142.902 140.245C142.997 140.459 143.045 140.894 143.045 141.552L143.027 142.067C143.015 142.298 143.009 142.417 143.009 142.423L142.947 145.293V145.657L142.929 146.386C142.929 146.386 142.929 146.712 142.929 147.364C142.929 147.897 142.935 148.217 142.947 148.324C143 148.797 143.154 149.239 143.409 149.648C143.67 150.05 143.8 150.403 143.8 150.705C143.8 151.001 143.634 151.238 143.302 151.416C142.976 151.594 142.559 151.683 142.049 151.683H141.88C141.294 151.683 140.781 151.538 140.343 151.247C140.094 151.081 139.97 150.859 139.97 150.581C139.97 150.302 140.106 149.979 140.379 149.612C140.657 149.245 140.835 148.898 140.912 148.572C140.995 148.241 141.036 147.322 141.036 145.817C141.036 144.307 140.95 143.332 140.779 142.894C140.666 142.603 140.441 142.411 140.103 142.316C139.517 142.15 139.223 141.984 139.223 141.818ZM150.234 150.625H150.474C151.019 150.625 151.499 150.4 151.914 149.95C152.334 149.494 152.545 148.934 152.545 148.27L152.562 148.101L152.571 147.835V147.746L152.562 147.666C152.562 146.919 152.376 146.342 152.002 145.933C151.629 145.524 151.14 145.32 150.536 145.32L150.456 145.329C149.834 145.329 149.316 145.521 148.901 145.906C148.486 146.285 148.279 146.762 148.279 147.337V147.924C148.279 148.753 148.483 149.411 148.892 149.896C149.307 150.382 149.754 150.625 150.234 150.625ZM151.487 139.739C152.654 139.739 153.238 140.029 153.238 140.61C153.238 141.019 152.873 141.256 152.145 141.321C151.7 141.356 151.431 141.383 151.336 141.401C150.264 141.573 149.461 142.091 148.928 142.956C148.714 143.305 148.608 143.64 148.608 143.96C148.608 144.345 148.815 144.538 149.23 144.538L150.918 144.413C151.919 144.413 152.737 144.733 153.371 145.373C154.011 146.007 154.331 146.842 154.331 147.879V148.11C154.331 148.614 154.236 149.1 154.046 149.568C153.661 150.498 153.01 151.155 152.091 151.541C151.558 151.766 151.055 151.878 150.581 151.878H150.118C149.603 151.872 149.094 151.757 148.59 151.532C147.63 151.093 146.976 150.323 146.626 149.221C146.401 148.498 146.288 147.74 146.288 146.946V146.466C146.288 145.483 146.422 144.564 146.688 143.711C147.221 142.005 148.184 140.832 149.576 140.192C150.246 139.89 150.883 139.739 151.487 139.739ZM161.822 143.249C161.822 141.94 161.179 141.285 159.894 141.285C159.384 141.285 158.884 141.499 158.392 141.925C157.681 142.541 157.254 142.849 157.112 142.849C156.798 142.849 156.641 142.595 156.641 142.085C156.641 141.57 157.003 141.06 157.725 140.557C158.448 140.053 159.284 139.801 160.232 139.801H160.516C160.972 139.801 161.419 139.887 161.858 140.059C162.302 140.231 162.664 140.465 162.942 140.761C163.481 141.33 163.751 142.058 163.751 142.947C163.751 144.25 163.093 145.498 161.778 146.688C161.375 147.056 160.957 147.429 160.525 147.808C160.092 148.187 159.728 148.531 159.432 148.839C159.141 149.141 158.996 149.428 158.996 149.701C158.996 149.973 159.506 150.11 160.525 150.11C161.099 150.11 161.615 150.08 162.071 150.021L162.542 149.95L162.764 149.905C163.019 149.864 163.22 149.843 163.369 149.843C163.807 149.843 164.026 150.062 164.026 150.501C164.026 150.933 163.845 151.235 163.484 151.407C163.129 151.573 162.471 151.656 161.511 151.656H159.832L159.556 151.647C158.022 151.647 157.13 151.603 156.881 151.514C156.638 151.419 156.517 151.147 156.517 150.696C156.517 150.24 156.807 149.648 157.388 148.919C157.737 148.481 158.339 147.87 159.192 147.088C160.051 146.306 160.703 145.619 161.147 145.027C161.597 144.428 161.822 143.836 161.822 143.249Z" fill="#7B7B7B"/>
<path opacity="0.5" d="M177.358 139.325C176.685 139.325 176.022 139.522 175.434 139.895C173.554 141.091 172.909 143.755 174.001 145.835C174.962 147.667 179.282 151.032 180.583 152.017C180.719 152.119 180.909 152.119 181.045 152.017C182.345 151.028 186.666 147.663 187.626 145.835C188.719 143.755 188.074 141.088 186.193 139.895C185.609 139.522 184.946 139.325 184.273 139.325C183.094 139.325 181.991 139.909 181.245 140.924L180.815 141.515L180.386 140.924C179.64 139.909 178.541 139.325 177.358 139.325Z" fill="#838383"/>
</g>
<g filter="url(#filter2_d_851_412)">
<rect x="53.0586" y="172.599" width="73.8889" height="35" rx="17.5" fill="white" shape-rendering="crispEdges"/>
<path opacity="0.7" d="M72.1092 186.519V186.786C72.1092 187.302 72.3254 187.775 72.7579 188.208C73.1904 188.64 73.6732 188.857 74.2064 188.857L74.2687 188.848C74.713 188.848 75.101 188.62 75.4328 188.164C75.7646 187.707 75.9305 187.224 75.9305 186.715V186.644C75.9305 186.152 75.7675 185.726 75.4417 185.364C75.1159 185.003 74.6834 184.822 74.1442 184.822H73.8776C73.4155 184.822 73.0038 184.985 72.6424 185.311C72.2869 185.631 72.1092 186.034 72.1092 186.519ZM76.1615 193.042V192.722C76.1615 192.13 75.9482 191.62 75.5217 191.194C74.9174 190.59 74.3101 190.287 73.6999 190.287H73.4066C72.9268 190.287 72.4706 190.598 72.0381 191.221C71.7537 191.629 71.6115 192.124 71.6115 192.705L71.6026 192.785C71.6026 193.413 71.8011 193.946 72.198 194.384C72.6009 194.817 73.1134 195.033 73.7354 195.033H74.0554C74.6656 195.033 75.1692 194.834 75.5661 194.438C75.9631 194.041 76.1615 193.576 76.1615 193.042ZM77.5479 186.697C77.5479 187.402 77.225 188.128 76.5792 188.874C76.2711 189.23 76.1171 189.44 76.1171 189.505C76.1171 189.571 76.2089 189.677 76.3926 189.825C77.3879 190.625 77.8855 191.597 77.8855 192.74V192.936C77.8855 193.848 77.5449 194.621 76.8636 195.255C76.5022 195.593 76.0638 195.853 75.5483 196.037C75.0329 196.215 74.5441 196.304 74.082 196.304H73.46C72.4943 196.304 71.6737 196.019 70.9983 195.451C70.6014 195.119 70.317 194.749 70.1452 194.34C69.9734 193.931 69.8875 193.549 69.8875 193.193V192.802C69.8875 191.908 70.3141 191.046 71.1672 190.216C71.5227 189.867 71.7004 189.677 71.7004 189.648C71.7004 189.612 71.5612 189.434 71.2827 189.114C70.6666 188.398 70.3585 187.607 70.3585 186.742C70.3585 185.871 70.6992 185.148 71.3805 184.573C72.0677 183.993 72.9475 183.702 74.0198 183.702H74.2242C75.2077 183.702 76.0075 183.972 76.6236 184.511C77.2398 185.044 77.5479 185.773 77.5479 186.697ZM83.4842 195.877C83.2887 196.322 82.9451 196.544 82.4533 196.544C81.9616 196.544 81.7157 196.319 81.7157 195.868C81.7157 195.412 82.2371 193.866 83.2798 191.229C83.5701 190.501 83.97 189.615 84.4795 188.572C84.989 187.524 85.2437 186.854 85.2437 186.564C85.2437 186.268 85.0986 186.072 84.8083 185.977C84.5239 185.883 84.0085 185.835 83.262 185.835C82.5155 185.835 81.8786 185.894 81.3514 186.013C80.8241 186.131 80.5397 186.191 80.4982 186.191C80.0954 186.191 79.8939 185.969 79.8939 185.524C79.8939 185.074 80.0421 184.748 80.3383 184.547C80.6404 184.339 81.1588 184.236 81.8935 184.236L82.1067 184.244H83.4042C85.2645 184.244 86.4257 184.307 86.8878 184.431C87.2492 184.526 87.4299 184.751 87.4299 185.106V185.284C87.4299 185.675 86.6775 187.616 85.1727 191.105C84.8113 191.946 84.5565 192.583 84.4084 193.016C84.2662 193.442 84.0885 193.996 83.8752 194.677C83.6678 195.359 83.5375 195.759 83.4842 195.877Z" fill="#7B7B7B"/>
<path opacity="0.5" d="M100.548 183.715C99.8742 183.715 99.2114 183.912 98.6239 184.285C96.743 185.481 96.0981 188.145 97.1908 190.225C98.151 192.057 102.472 195.422 103.772 196.407C103.908 196.509 104.098 196.509 104.234 196.407C105.535 195.418 109.855 192.053 110.815 190.225C111.908 188.145 111.263 185.478 109.382 184.285C108.798 183.912 108.136 183.715 107.462 183.715C106.283 183.715 105.18 184.299 104.435 185.314L104.005 185.905L103.575 185.314C102.83 184.299 101.73 183.715 100.548 183.715Z" fill="#838383"/>
</g>
<g filter="url(#filter3_d_851_412)">
<rect x="181.469" y="92.8253" width="85.8889" height="35" rx="17.5" fill="white" shape-rendering="crispEdges"/>
<path opacity="0.7" d="M198.699 106.434V106.337C198.699 106.117 198.939 105.86 199.419 105.564C200.533 104.882 201.276 104.542 201.649 104.542H201.792C202.088 104.542 202.283 104.648 202.378 104.861C202.473 105.075 202.52 105.51 202.52 106.168L202.503 106.683C202.491 106.914 202.485 107.033 202.485 107.039L202.423 109.909V110.273L202.405 111.002C202.405 111.002 202.405 111.328 202.405 111.98C202.405 112.513 202.411 112.833 202.423 112.939C202.476 113.413 202.63 113.855 202.885 114.264C203.145 114.666 203.276 115.019 203.276 115.321C203.276 115.617 203.11 115.854 202.778 116.032C202.452 116.21 202.035 116.299 201.525 116.299H201.356C200.77 116.299 200.257 116.154 199.819 115.863C199.57 115.697 199.446 115.475 199.446 115.197C199.446 114.918 199.582 114.595 199.854 114.228C200.133 113.861 200.31 113.514 200.387 113.188C200.47 112.857 200.512 111.938 200.512 110.433C200.512 108.923 200.426 107.948 200.254 107.51C200.142 107.219 199.917 107.027 199.579 106.932C198.992 106.766 198.699 106.6 198.699 106.434ZM207.266 114.175C207.337 114.193 207.458 114.201 207.63 114.201C207.808 114.201 207.965 114.299 208.101 114.495C208.237 114.684 208.306 114.915 208.306 115.188V115.392L208.297 115.428V115.508C208.285 115.555 208.279 115.594 208.279 115.623C208.279 115.884 208.184 116.091 207.995 116.245C207.811 116.399 207.544 116.476 207.195 116.476H207.07C206.371 116.476 206.022 116.201 206.022 115.65L205.995 115.463V115.179C205.995 114.918 206.063 114.693 206.199 114.504C206.336 114.314 206.534 114.219 206.795 114.219C206.878 114.201 206.928 114.193 206.946 114.193L207.141 114.175H207.266ZM214.393 104.39C216.366 104.39 217.352 105.175 217.352 106.745C217.352 107.468 217.139 108.152 216.712 108.798C216.292 109.438 216.081 109.761 216.081 109.767C216.081 109.879 216.256 110.054 216.606 110.291C216.961 110.528 217.29 110.875 217.592 111.331C217.9 111.781 218.054 112.291 218.054 112.859C218.054 113.428 217.971 113.935 217.805 114.379C217.64 114.823 217.349 115.229 216.935 115.597C216.526 115.964 216.049 116.242 215.504 116.432C214.959 116.627 214.417 116.725 213.878 116.725H213.593C212.829 116.725 212.142 116.556 211.531 116.219C210.921 115.875 210.616 115.499 210.616 115.09C210.616 114.675 210.809 114.468 211.194 114.468C211.36 114.468 211.745 114.586 212.349 114.823C212.959 115.06 213.549 115.179 214.117 115.179C214.686 115.179 215.151 114.972 215.513 114.557C215.874 114.142 216.055 113.65 216.055 113.082C216.055 112.507 215.83 112.012 215.379 111.598C215.107 111.349 214.828 111.18 214.544 111.091C214.26 110.996 213.987 110.922 213.726 110.869C213.466 110.81 213.27 110.73 213.14 110.629C213.016 110.528 212.953 110.368 212.953 110.149C212.953 109.977 213.226 109.749 213.771 109.465C214.891 108.878 215.45 108.111 215.45 107.163C215.45 106.778 215.314 106.47 215.042 106.239C214.775 106.008 214.429 105.892 214.002 105.892C213.575 105.892 213.084 106.02 212.527 106.274C211.97 106.529 211.597 106.657 211.407 106.657C211.129 106.657 210.989 106.505 210.989 106.203C210.989 105.747 211.268 105.356 211.825 105.03C212.553 104.604 213.41 104.39 214.393 104.39ZM223.066 110.353C223.215 110.353 223.688 109.933 224.488 109.092C224.707 108.86 224.918 108.618 225.119 108.363C225.321 108.108 225.504 107.924 225.67 107.812C225.836 107.693 226.085 107.634 226.417 107.634C227.092 107.634 227.43 107.782 227.43 108.078C227.43 108.138 227.042 108.615 226.266 109.509C225.495 110.398 225.11 111.029 225.11 111.402C225.11 111.586 225.593 112.35 226.559 113.695C227.531 115.04 228.016 115.718 228.016 115.73C228.016 115.985 227.753 116.112 227.225 116.112C226.698 116.112 226.275 115.976 225.955 115.703C225.913 115.668 225.549 115.111 224.862 114.033C224.18 112.954 223.697 112.415 223.413 112.415C223.206 112.415 223.031 112.572 222.889 112.886C222.746 113.194 222.675 113.579 222.675 114.041L222.711 114.512C222.729 114.749 222.738 114.903 222.738 114.975C222.738 115.68 222.198 116.032 221.12 116.032C220.634 116.032 220.392 115.727 220.392 115.117L220.418 114.903C220.525 114.027 220.578 113.206 220.578 112.442V111.002L220.587 110.7C220.593 110.499 220.596 110.297 220.596 110.096L220.614 109.491C220.614 109.29 220.614 109.089 220.614 108.887L220.631 107.687C220.631 106.39 220.608 105.596 220.56 105.306C220.513 105.01 220.46 104.758 220.4 104.55C220.347 104.337 220.32 104.207 220.32 104.159V103.946C220.32 103.834 220.406 103.727 220.578 103.626C220.75 103.525 220.984 103.475 221.28 103.475H221.52C221.959 103.475 222.249 103.653 222.391 104.008C222.498 104.275 222.551 104.882 222.551 105.83V107.696L222.569 108.816C222.569 109.841 222.735 110.353 223.066 110.353Z" fill="#7B7B7B"/>
<path opacity="0.5" d="M240.958 103.941C240.284 103.941 239.622 104.138 239.034 104.511C237.153 105.707 236.508 108.371 237.601 110.451C238.561 112.283 242.882 115.648 244.182 116.633C244.318 116.735 244.508 116.735 244.644 116.633C245.945 115.644 250.265 112.279 251.226 110.451C252.318 108.371 251.673 105.704 249.793 104.511C249.209 104.138 248.546 103.941 247.872 103.941C246.694 103.941 245.59 104.525 244.845 105.54L244.415 106.131L243.985 105.54C243.24 104.525 242.14 103.941 240.958 103.941Z" fill="#838383"/>
</g>
<g filter="url(#filter4_f_851_412)">
<rect x="77.459" y="49" width="127.299" height="53.8011" rx="26.9006" fill="url(#paint0_linear_851_412)"/>
</g>
<g filter="url(#filter5_d_851_412)">
<rect x="77.7676" y="49.0048" width="126.991" height="54.4091" rx="27.2045" fill="black" shape-rendering="crispEdges"/>
<path d="M112.694 80.7682C112.694 78.1174 110.992 76.792 107.588 76.792L106.793 76.8199C106.03 76.8199 105.495 76.6711 105.188 76.3735C104.881 76.0758 104.728 75.355 104.728 74.211C104.728 73.067 104.835 71.8997 105.049 70.7092C105.272 69.5093 105.486 68.7513 105.69 68.4351C105.904 68.1188 106.253 67.9096 106.737 67.8072C107.22 67.7049 108.03 67.6538 109.164 67.6538C110.299 67.6538 111.159 67.6398 111.745 67.6119L113.057 67.5282C113.522 67.491 113.806 67.4724 113.908 67.4724C114.801 67.4724 115.247 67.7328 115.247 68.2537C115.247 69.0443 114.857 69.5558 114.075 69.7884C113.703 69.9 112.727 69.979 111.145 70.0255C109.564 70.072 108.625 70.179 108.327 70.3464C108.03 70.5138 107.76 70.8626 107.518 71.3928C107.276 71.9229 107.155 72.5136 107.155 73.1646C107.155 73.8157 107.23 74.2063 107.379 74.3366C107.527 74.4575 108.095 74.5179 109.081 74.5179C112.141 74.5179 114.187 75.6201 115.219 77.8244C115.573 78.5871 115.749 79.4614 115.749 80.4473C115.749 82.3168 115.173 83.8096 114.019 84.9258C113.396 85.5303 112.657 85.9907 111.801 86.307C110.945 86.6325 110.076 86.7953 109.192 86.7953H108.732C107.476 86.7953 106.374 86.5255 105.425 85.9861C104.486 85.4466 104.016 84.8467 104.016 84.1863C104.016 83.5166 104.314 83.1818 104.909 83.1818C105.17 83.1818 105.746 83.3864 106.639 83.7957C107.541 84.2049 108.443 84.4095 109.346 84.4095C110.248 84.4095 111.029 84.0794 111.69 83.419C112.359 82.7493 112.694 81.8657 112.694 80.7682ZM123.688 76.8339C123.92 76.8339 124.664 76.1735 125.92 74.8528C126.264 74.49 126.594 74.1087 126.911 73.7087C127.227 73.3088 127.515 73.0205 127.776 72.8437C128.036 72.6577 128.427 72.5647 128.948 72.5647C130.008 72.5647 130.538 72.7972 130.538 73.2623C130.538 73.3553 129.929 74.104 128.71 75.5085C127.501 76.9036 126.897 77.8942 126.897 78.4802C126.897 78.7685 127.655 79.9683 129.171 82.0796C130.696 84.191 131.459 85.2559 131.459 85.2745C131.459 85.6745 131.045 85.8745 130.217 85.8745C129.389 85.8745 128.724 85.6605 128.222 85.2327C128.157 85.1769 127.585 84.3026 126.506 82.6098C125.436 80.917 124.678 80.0706 124.232 80.0706C123.906 80.0706 123.632 80.3171 123.409 80.8101C123.186 81.2937 123.074 81.8983 123.074 82.6238L123.13 83.3632C123.158 83.7352 123.172 83.977 123.172 84.0887C123.172 85.1955 122.325 85.7489 120.632 85.7489C119.87 85.7489 119.488 85.2699 119.488 84.3119L119.53 83.977C119.698 82.6005 119.781 81.3123 119.781 80.1125V77.8523L119.795 77.378C119.805 77.0617 119.809 76.7455 119.809 76.4293L119.837 75.4806C119.837 75.1643 119.837 74.8481 119.837 74.5319L119.865 72.6484C119.865 70.6115 119.828 69.3652 119.753 68.9094C119.679 68.4444 119.595 68.0491 119.502 67.7235C119.419 67.3887 119.377 67.1841 119.377 67.1097V66.7748C119.377 66.5981 119.512 66.4307 119.781 66.2726C120.051 66.1145 120.419 66.0354 120.884 66.0354H121.26C121.949 66.0354 122.404 66.3144 122.628 66.8725C122.795 67.291 122.879 68.2444 122.879 69.7326V72.6624L122.907 74.4203C122.907 76.0293 123.167 76.8339 123.688 76.8339ZM146.401 77.6849C146.401 78.2895 146.266 78.6522 145.996 78.7731C145.727 78.8847 144.913 78.9406 143.555 78.9406C142.197 78.9406 141.485 79.001 141.42 79.1219C141.364 79.2335 141.336 79.9823 141.336 81.3681C141.336 82.754 141.271 83.5632 141.141 83.7957C141.011 84.0189 140.695 84.1305 140.192 84.1305H139.955C139.555 84.1305 139.314 83.9538 139.23 83.6004C139.183 83.405 139.16 82.6284 139.16 81.2705C139.16 79.9032 139.128 79.1824 139.062 79.108C139.007 79.0336 138.29 78.9964 136.914 78.9964C135.537 78.9964 134.737 78.9499 134.514 78.8568C134.291 78.7545 134.179 78.5313 134.179 78.1872V77.95C134.179 77.4105 134.347 77.0943 134.682 77.0013C135.026 76.9083 135.83 76.8618 137.095 76.8618C138.36 76.8618 139.025 76.8106 139.09 76.7083C139.155 76.5967 139.188 75.8945 139.188 74.6016C139.188 73.3088 139.244 72.5136 139.355 72.2159C139.467 71.9183 139.788 71.7695 140.318 71.7695C140.857 71.7695 141.169 71.8857 141.253 72.1183C141.336 72.3508 141.378 73.1646 141.378 74.5598C141.378 75.9549 141.416 76.6804 141.49 76.7362C141.574 76.792 142.29 76.8199 143.638 76.8199C144.996 76.8199 145.796 76.8571 146.038 76.9315C146.28 76.9966 146.401 77.1687 146.401 77.4477V77.6849Z" fill="white"/>
<path opacity="0.5" d="M163.35 66.2092C162.295 66.2092 161.257 66.5179 160.337 67.1009C157.39 68.9757 156.38 73.1484 158.092 76.4065C159.596 79.2759 166.364 84.546 168.401 86.0893C168.614 86.2494 168.911 86.2494 169.125 86.0893C171.162 84.5403 177.93 79.2702 179.434 76.4065C181.145 73.1484 180.135 68.97 177.189 67.1009C176.274 66.5179 175.236 66.2092 174.181 66.2092C172.335 66.2092 170.606 67.1238 169.439 68.7128L168.766 69.6388L168.092 68.7128C166.925 67.1238 165.202 66.2092 163.35 66.2092Z" fill="white"/>
<rect x="78.7676" y="50.0048" width="124.991" height="52.4091" rx="26.2045" stroke="url(#paint1_linear_851_412)" stroke-width="2" shape-rendering="crispEdges"/>
</g>
<g opacity="0.6" filter="url(#filter6_f_851_412)">
<rect x="172.157" y="189.099" width="70.7754" height="21" rx="10.5" fill="black" fill-opacity="0.1"/>
</g>
<defs>
<filter id="filter0_d_851_412" x="0.714355" y="73.2094" width="125.889" height="77" filterUnits="userSpaceOnUse" color-interpolation-filters="sRGB">
<feFlood flood-opacity="0" result="BackgroundImageFix"/>
<feColorMatrix in="SourceAlpha" type="matrix" values="0 0 0 0 0 0 0 0 0 0 0 0 0 0 0 0 0 0 127 0" result="hardAlpha"/>
<feOffset dy="1"/>
<feGaussianBlur stdDeviation="10.5"/>
<feComposite in2="hardAlpha" operator="out"/>
<feColorMatrix type="matrix" values="0 0 0 0 0 0 0 0 0 0 0 0 0 0 0 0 0 0 0.07 0"/>
<feBlend mode="normal" in2="BackgroundImageFix" result="effect1_dropShadow_851_412"/>
<feBlend mode="normal" in="SourceGraphic" in2="effect1_dropShadow_851_412" result="shape"/>
</filter>
<filter id="filter1_d_851_412" x="100.869" y="108.209" width="123.889" height="77" filterUnits="userSpaceOnUse" color-interpolation-filters="sRGB">
<feFlood flood-opacity="0" result="BackgroundImageFix"/>
<feColorMatrix in="SourceAlpha" type="matrix" values="0 0 0 0 0 0 0 0 0 0 0 0 0 0 0 0 0 0 127 0" result="hardAlpha"/>
<feOffset dy="1"/>
<feGaussianBlur stdDeviation="10.5"/>
<feComposite in2="hardAlpha" operator="out"/>
<feColorMatrix type="matrix" values="0 0 0 0 0 0 0 0 0 0 0 0 0 0 0 0 0 0 0.07 0"/>
<feBlend mode="normal" in2="BackgroundImageFix" result="effect1_dropShadow_851_412"/>
<feBlend mode="normal" in="SourceGraphic" in2="effect1_dropShadow_851_412" result="shape"/>
</filter>
<filter id="filter2_d_851_412" x="32.0586" y="152.599" width="115.889" height="77" filterUnits="userSpaceOnUse" color-interpolation-filters="sRGB">
<feFlood flood-opacity="0" result="BackgroundImageFix"/>
<feColorMatrix in="SourceAlpha" type="matrix" values="0 0 0 0 0 0 0 0 0 0 0 0 0 0 0 0 0 0 127 0" result="hardAlpha"/>
<feOffset dy="1"/>
<feGaussianBlur stdDeviation="10.5"/>
<feComposite in2="hardAlpha" operator="out"/>
<feColorMatrix type="matrix" values="0 0 0 0 0 0 0 0 0 0 0 0 0 0 0 0 0 0 0.07 0"/>
<feBlend mode="normal" in2="BackgroundImageFix" result="effect1_dropShadow_851_412"/>
<feBlend mode="normal" in="SourceGraphic" in2="effect1_dropShadow_851_412" result="shape"/>
</filter>
<filter id="filter3_d_851_412" x="160.469" y="72.8253" width="127.889" height="77" filterUnits="userSpaceOnUse" color-interpolation-filters="sRGB">
<feFlood flood-opacity="0" result="BackgroundImageFix"/>
<feColorMatrix in="SourceAlpha" type="matrix" values="0 0 0 0 0 0 0 0 0 0 0 0 0 0 0 0 0 0 127 0" result="hardAlpha"/>
<feOffset dy="1"/>
<feGaussianBlur stdDeviation="10.5"/>
<feComposite in2="hardAlpha" operator="out"/>
<feColorMatrix type="matrix" values="0 0 0 0 0 0 0 0 0 0 0 0 0 0 0 0 0 0 0.07 0"/>
<feBlend mode="normal" in2="BackgroundImageFix" result="effect1_dropShadow_851_412"/>
<feBlend mode="normal" in="SourceGraphic" in2="effect1_dropShadow_851_412" result="shape"/>
</filter>
<filter id="filter4_f_851_412" x="62.459" y="34" width="157.299" height="83.8011" filterUnits="userSpaceOnUse" color-interpolation-filters="sRGB">
<feFlood flood-opacity="0" result="BackgroundImageFix"/>
<feBlend mode="normal" in="SourceGraphic" in2="BackgroundImageFix" result="shape"/>
<feGaussianBlur stdDeviation="7.5" result="effect1_foregroundBlur_851_412"/>
</filter>
<filter id="filter5_d_851_412" x="24.7676" y="0.00476074" width="232.991" height="160.409" filterUnits="userSpaceOnUse" color-interpolation-filters="sRGB">
<feFlood flood-opacity="0" result="BackgroundImageFix"/>
<feColorMatrix in="SourceAlpha" type="matrix" values="0 0 0 0 0 0 0 0 0 0 0 0 0 0 0 0 0 0 127 0" result="hardAlpha"/>
<feOffset dy="4"/>
<feGaussianBlur stdDeviation="26.5"/>
<feComposite in2="hardAlpha" operator="out"/>
<feColorMatrix type="matrix" values="0 0 0 0 0 0 0 0 0 0 0 0 0 0 0 0 0 0 0.33 0"/>
<feBlend mode="normal" in2="BackgroundImageFix" result="effect1_dropShadow_851_412"/>
<feBlend mode="normal" in="SourceGraphic" in2="effect1_dropShadow_851_412" result="shape"/>
</filter>
<filter id="filter6_f_851_412" x="157.157" y="174.099" width="100.775" height="51" filterUnits="userSpaceOnUse" color-interpolation-filters="sRGB">
<feFlood flood-opacity="0" result="BackgroundImageFix"/>
<feBlend mode="normal" in="SourceGraphic" in2="BackgroundImageFix" result="shape"/>
<feGaussianBlur stdDeviation="7.5" result="effect1_foregroundBlur_851_412"/>
</filter>
<linearGradient id="paint0_linear_851_412" x1="133.62" y1="28.0426" x2="212.75" y2="92.9347" gradientUnits="userSpaceOnUse">
<stop stop-color="#1E6EA9"/>
<stop offset="0.520833" stop-color="#4BC270"/>
<stop offset="1" stop-color="#FFCB3C"/>
</linearGradient>
<linearGradient id="paint1_linear_851_412" x1="133.793" y1="27.8105" x2="213.596" y2="92.3669" gradientUnits="userSpaceOnUse">
<stop stop-color="#1E6EA9"/>
<stop offset="0.520833" stop-color="#4BC270"/>
<stop offset="1" stop-color="#FFCB3C"/>
</linearGradient>
</defs>
</svg>
