<svg width="24" height="24" viewBox="0 0 24 24" fill="none" xmlns="http://www.w3.org/2000/svg">
<g clip-path="url(#clip0_815_265)">
<path d="M11.6226 7.2221C10.7466 7.2221 9.3906 6.2261 7.9626 6.2621C6.0786 6.2861 4.3506 7.3541 3.3786 9.0461C1.4226 12.4421 2.8746 17.4581 4.7826 20.2181C5.7186 21.5621 6.8226 23.0741 8.2866 23.0261C9.6906 22.9661 10.2186 22.1141 11.9226 22.1141C13.6146 22.1141 14.0946 23.0261 15.5826 22.9901C17.0946 22.9661 18.0546 21.6221 18.9786 20.2661C20.0466 18.7061 20.4906 17.1941 20.5146 17.1101C20.4786 17.0981 17.5746 15.9821 17.5386 12.6221C17.5146 9.8141 19.8306 8.4701 19.9386 8.4101C18.6186 6.4781 16.5906 6.2621 15.8826 6.2141C14.0346 6.0701 12.4866 7.2221 11.6226 7.2221ZM14.7426 4.3901C15.5226 3.4541 16.0386 2.1461 15.8946 0.850098C14.7786 0.898098 13.4346 1.5941 12.6306 2.5301C11.9106 3.3581 11.2866 4.6901 11.4546 5.9621C12.6906 6.0581 13.9626 5.3261 14.7426 4.3901Z" fill="#474747"/>
</g>
<defs>
<clipPath id="clip0_815_265">
<rect width="24" height="24" fill="white"/>
</clipPath>
</defs>
</svg>
