<svg width="120" height="124" viewBox="0 0 120 124" fill="none" xmlns="http://www.w3.org/2000/svg">
<path opacity="0.75" fill-rule="evenodd" clip-rule="evenodd" d="M108.649 11.6136L106.522 4.98649C106.098 3.66828 105.169 2.57218 103.937 1.93934C102.706 1.30649 101.274 1.18873 99.9554 1.61196L90.7599 4.56432C87.7337 5.53593 87.3929 9.68136 90.2198 11.1342C93.0467 12.587 92.7059 16.7324 89.6796 17.7041L87.2742 18.4764C86.109 18.8505 84.843 18.7464 83.7546 18.187L72.1733 12.2351C70.8672 11.5638 69.348 11.4389 67.9498 11.8878L63.4231 13.3412C60.3969 14.3128 60.0561 18.4582 62.883 19.9111C65.7099 21.3639 65.3691 25.5093 62.3429 26.4809L59.9374 27.2532C58.7722 27.6273 57.5062 27.5232 56.4178 26.9639L44.8366 21.0119C43.5305 20.3407 42.0112 20.2158 40.6131 20.6647L36.0864 22.1181C33.0602 23.0897 32.7193 27.2351 35.5462 28.6879C38.3731 30.1408 38.0323 34.2862 35.0061 35.2578L32.6006 36.0301C31.4355 36.4042 30.1695 36.3001 29.0811 35.7408L20.1029 31.1266C17.1301 29.5988 13.6721 29.3145 10.4897 30.3363C9.17145 30.7595 8.07536 31.6891 7.44251 32.9204C6.80966 34.1518 6.6919 35.5842 7.11514 36.9024L8.63183 41.6263C8.41996 42.137 8.28862 42.6827 8.24737 43.2444L3.91442 102.248C3.81302 103.629 4.26429 104.993 5.16894 106.041C6.07359 107.089 7.35753 107.735 8.7383 107.836L102.45 114.718C103.831 114.82 105.195 114.368 106.243 113.464C107.291 112.559 107.937 111.275 108.038 109.894L112.371 50.8908C112.473 49.51 112.021 48.1455 111.117 47.0975C110.212 46.0494 108.928 45.4037 107.547 45.3023L36.9461 40.1176L105.275 18.1797C106.593 17.7565 107.689 16.8269 108.322 15.5955C108.955 14.3641 109.073 12.9318 108.649 11.6136Z" fill="url(#paint0_linear_815_427)"/>
<g opacity="0.04" filter="url(#filter0_d_815_427)">
<mask id="path-2-inside-1_815_427" fill="white">
<path fill-rule="evenodd" clip-rule="evenodd" d="M108.649 11.6136L106.522 4.98649C106.098 3.66828 105.169 2.57218 103.937 1.93934C102.706 1.30649 101.274 1.18873 99.9554 1.61196L90.7599 4.56432C87.7337 5.53593 87.3929 9.68136 90.2198 11.1342C93.0467 12.587 92.7059 16.7324 89.6796 17.7041L87.2742 18.4764C86.109 18.8505 84.843 18.7464 83.7546 18.187L72.1733 12.2351C70.8672 11.5638 69.348 11.4389 67.9498 11.8878L63.4231 13.3412C60.3969 14.3128 60.0561 18.4582 62.883 19.9111C65.7099 21.3639 65.3691 25.5093 62.3429 26.4809L59.9374 27.2532C58.7722 27.6273 57.5062 27.5232 56.4178 26.9639L44.8366 21.0119C43.5305 20.3407 42.0112 20.2158 40.6131 20.6647L36.0864 22.1181C33.0602 23.0897 32.7193 27.2351 35.5462 28.6879C38.3731 30.1408 38.0323 34.2862 35.0061 35.2578L32.6006 36.0301C31.4355 36.4042 30.1695 36.3001 29.0811 35.7408L20.1029 31.1266C17.1301 29.5988 13.6721 29.3145 10.4897 30.3363C9.17145 30.7595 8.07536 31.6891 7.44251 32.9204C6.80966 34.1518 6.6919 35.5842 7.11514 36.9024L8.63183 41.6263C8.41996 42.137 8.28862 42.6827 8.24737 43.2444L3.91442 102.248C3.81302 103.629 4.26429 104.993 5.16894 106.041C6.07359 107.089 7.35753 107.735 8.7383 107.836L102.45 114.718C103.831 114.82 105.195 114.368 106.243 113.464C107.291 112.559 107.937 111.275 108.038 109.894L112.371 50.8908C112.473 49.51 112.021 48.1455 111.117 47.0975C110.212 46.0494 108.928 45.4037 107.547 45.3023L36.9461 40.1176L105.275 18.1797C106.593 17.7565 107.689 16.8269 108.322 15.5955C108.955 14.3641 109.073 12.9318 108.649 11.6136Z"/>
</mask>
<path d="M106.522 4.98649L111.282 3.45801V3.458L106.522 4.98649ZM108.649 11.6136L103.889 13.1421V13.1421L108.649 11.6136ZM99.9554 1.61196L98.427 -3.14869V-3.14868L99.9554 1.61196ZM90.7599 4.56432L92.2884 9.32497V9.32497L90.7599 4.56432ZM89.6796 17.7041L88.1512 12.9434L89.6796 17.7041ZM87.2742 18.4764L88.8026 23.237V23.237L87.2742 18.4764ZM83.7546 18.187L81.4691 22.6341L81.4691 22.6341L83.7546 18.187ZM72.1733 12.2351L74.4588 7.78798L74.4588 7.78797L72.1733 12.2351ZM67.9498 11.8878L69.4783 16.6485H69.4783L67.9498 11.8878ZM63.4231 13.3412L64.9516 18.1018L63.4231 13.3412ZM62.3429 26.4809L60.8144 21.7203H60.8144L62.3429 26.4809ZM59.9374 27.2532L61.4659 32.0139L61.4659 32.0139L59.9374 27.2532ZM56.4178 26.9639L58.7033 22.5168L56.4178 26.9639ZM44.8366 21.0119L42.5511 25.459L42.5511 25.459L44.8366 21.0119ZM40.6131 20.6647L39.0846 15.9041L39.0846 15.9041L40.6131 20.6647ZM36.0864 22.1181L37.6149 26.8787L36.0864 22.1181ZM35.0061 35.2578L33.4776 30.4972H33.4776L35.0061 35.2578ZM32.6006 36.0301L31.0722 31.2695H31.0722L32.6006 36.0301ZM29.0811 35.7408L31.3666 31.2937L31.3665 31.2937L29.0811 35.7408ZM20.1029 31.1266L17.8174 35.5737H17.8174L20.1029 31.1266ZM10.4897 30.3363L8.96118 25.5756H8.96118L10.4897 30.3363ZM7.44251 32.9204L2.99543 30.635L2.99543 30.635L7.44251 32.9204ZM7.11514 36.9024L11.8758 35.3739H11.8758L7.11514 36.9024ZM8.63183 41.6263L13.2501 43.5424L13.9538 41.8463L13.3925 40.0979L8.63183 41.6263ZM8.24737 43.2444L3.2608 42.8782H3.2608L8.24737 43.2444ZM3.91442 102.248L8.90099 102.614L3.91442 102.248ZM5.16894 106.041L8.95391 102.774L5.16894 106.041ZM8.7383 107.836L9.10449 102.85H9.10448L8.7383 107.836ZM102.45 114.718L102.084 119.705H102.084L102.45 114.718ZM108.038 109.894L103.052 109.528V109.528L108.038 109.894ZM112.371 50.8908L117.358 51.257V51.257L112.371 50.8908ZM107.547 45.3023L107.914 40.3157H107.914L107.547 45.3023ZM36.9461 40.1176L35.4176 35.357L36.5799 45.1042L36.9461 40.1176ZM105.275 18.1797L103.746 13.419V13.419L105.275 18.1797ZM101.761 6.51497L103.889 13.1421L113.41 10.0851L111.282 3.45801L101.761 6.51497ZM101.652 6.38642C101.704 6.4131 101.743 6.45933 101.761 6.51497L111.282 3.458C110.454 0.877221 108.634 -1.26874 106.223 -2.50775L101.652 6.38642ZM101.484 6.37261C101.54 6.35475 101.6 6.35972 101.652 6.38642L106.223 -2.50775C103.812 -3.74675 101.008 -3.97729 98.427 -3.14869L101.484 6.37261ZM92.2884 9.32497L101.484 6.37261L98.427 -3.14868L89.2314 -0.196329L92.2884 9.32497ZM92.5053 6.68711C93.6403 7.27042 93.5035 8.93485 92.2884 9.32497L89.2314 -0.196329C81.9639 2.13702 81.1455 12.0923 87.9343 15.5813L92.5053 6.68711ZM91.2081 22.4647C98.4756 20.1314 99.2941 10.1761 92.5053 6.68711L87.9343 15.5813C86.7993 14.9979 86.9361 13.3335 88.1512 12.9434L91.2081 22.4647ZM88.8026 23.237L91.2081 22.4647L88.1512 12.9434L85.7457 13.7157L88.8026 23.237ZM81.4691 22.6341C83.7369 23.7996 86.3749 24.0165 88.8026 23.237L85.7457 13.7157C85.8431 13.6844 85.949 13.6931 86.0401 13.7399L81.4691 22.6341ZM69.8878 16.6821L81.4691 22.6341L86.0401 13.7399L74.4588 7.78798L69.8878 16.6821ZM69.4783 16.6485C69.6139 16.6049 69.7612 16.6171 69.8878 16.6821L74.4588 7.78797C71.9733 6.51059 69.0821 6.2729 66.4214 7.12718L69.4783 16.6485ZM64.9516 18.1018L69.4783 16.6485L66.4214 7.12718L61.8947 8.58054L64.9516 18.1018ZM65.1685 15.464C66.3035 16.0473 66.1667 17.7117 64.9516 18.1018L61.8947 8.58054C54.6271 10.9139 53.8087 20.8692 60.5975 24.3581L65.1685 15.464ZM63.8713 31.2416C71.1388 28.9082 71.9573 18.953 65.1685 15.464L60.5975 24.3581C59.4625 23.7748 59.5993 22.1104 60.8144 21.7203L63.8713 31.2416ZM61.4659 32.0139L63.8713 31.2416L60.8144 21.7203L58.4089 22.4926L61.4659 32.0139ZM54.1323 31.411C56.4002 32.5765 59.0381 32.7934 61.4659 32.0139L58.4089 22.4926C58.5064 22.4613 58.6123 22.47 58.7033 22.5168L54.1323 31.411ZM42.5511 25.459L54.1323 31.411L58.7033 22.5168L47.122 16.5649L42.5511 25.459ZM42.1415 25.4253C42.2771 25.3818 42.4244 25.3939 42.5511 25.459L47.1221 16.5649C44.6365 15.2875 41.7454 15.0498 39.0846 15.9041L42.1415 25.4253ZM37.6149 26.8787L42.1415 25.4253L39.0846 15.9041L34.5579 17.3574L37.6149 26.8787ZM37.8317 24.2409C38.9668 24.8242 38.8299 26.4886 37.6149 26.8787L34.5579 17.3574C27.2904 19.6908 26.4719 29.646 33.2608 33.135L37.8317 24.2409ZM36.5346 40.0185C43.8021 37.6851 44.6206 27.7298 37.8317 24.2409L33.2608 33.135C32.1257 32.5517 32.2626 30.8873 33.4776 30.4972L36.5346 40.0185ZM34.1291 40.7908L36.5346 40.0185L33.4776 30.4972L31.0722 31.2695L34.1291 40.7908ZM26.7956 40.1878C29.0634 41.3534 31.7014 41.5702 34.1291 40.7908L31.0722 31.2695C31.1696 31.2382 31.2755 31.2469 31.3666 31.2937L26.7956 40.1878ZM17.8174 35.5737L26.7956 40.1878L31.3665 31.2937L22.3884 26.6795L17.8174 35.5737ZM12.0181 35.0969C13.938 34.4805 16.0241 34.652 17.8174 35.5737L22.3884 26.6795C18.2362 24.5456 13.4062 24.1485 8.96118 25.5756L12.0181 35.0969ZM11.8896 35.2059C11.9163 35.154 11.9625 35.1148 12.0181 35.0969L8.96118 25.5756C6.38037 26.4042 4.23443 28.2241 2.99543 30.635L11.8896 35.2059ZM11.8758 35.3739C11.8579 35.3183 11.8629 35.2579 11.8896 35.2059L2.99543 30.635C1.75643 33.0458 1.52588 35.85 2.35449 38.4309L11.8758 35.3739ZM13.3925 40.0979L11.8758 35.3739L2.35449 38.4309L3.87118 43.1548L13.3925 40.0979ZM13.2339 43.6106C13.2357 43.5867 13.2412 43.564 13.2501 43.5424L4.01355 39.7102C3.59874 40.71 3.34155 41.7786 3.2608 42.8782L13.2339 43.6106ZM8.90099 102.614L13.2339 43.6106L3.2608 42.8782L-1.07215 101.882L8.90099 102.614ZM8.95391 102.774C8.91574 102.73 8.89672 102.672 8.90099 102.614L-1.07215 101.882C-1.27067 104.585 -0.387165 107.256 1.38396 109.308L8.95391 102.774ZM9.10448 102.85C9.04623 102.846 8.99207 102.818 8.95391 102.774L1.38396 109.308C3.15511 111.36 5.66883 112.625 8.37212 112.823L9.10448 102.85ZM102.816 109.732L9.10449 102.85L8.37211 112.823L102.084 119.705L102.816 109.732ZM102.976 109.679C102.932 109.717 102.874 109.736 102.816 109.732L102.084 119.705C104.787 119.903 107.458 119.02 109.51 117.249L102.976 109.679ZM103.052 109.528C103.047 109.586 103.02 109.641 102.976 109.679L109.51 117.249C111.562 115.478 112.826 112.964 113.025 110.26L103.052 109.528ZM107.385 50.5246L103.052 109.528L113.025 110.26L117.358 51.257L107.385 50.5246ZM107.332 50.3646C107.37 50.4088 107.389 50.4663 107.385 50.5246L117.358 51.257C117.556 48.5537 116.673 45.8823 114.902 43.8304L107.332 50.3646ZM107.181 50.2888C107.239 50.2931 107.294 50.3204 107.332 50.3646L114.902 43.8304C113.131 41.7785 110.617 40.5142 107.914 40.3157L107.181 50.2888ZM36.5799 45.1042L107.181 50.2888L107.914 40.3157L37.3123 35.1311L36.5799 45.1042ZM103.746 13.419L35.4176 35.357L38.4745 44.8783L106.803 22.9403L103.746 13.419ZM103.875 13.31C103.848 13.362 103.802 13.4012 103.746 13.419L106.803 22.9403C109.384 22.1117 111.53 20.2919 112.769 17.881L103.875 13.31ZM103.889 13.1421C103.906 13.1977 103.902 13.2581 103.875 13.31L112.769 17.881C114.008 15.4702 114.239 12.6659 113.41 10.0851L103.889 13.1421Z" fill="url(#paint1_linear_815_427)" mask="url(#path-2-inside-1_815_427)"/>
</g>
<defs>
<filter id="filter0_d_815_427" x="0.900391" y="0.362061" width="118.485" height="123.37" filterUnits="userSpaceOnUse" color-interpolation-filters="sRGB">
<feFlood flood-opacity="0" result="BackgroundImageFix"/>
<feColorMatrix in="SourceAlpha" type="matrix" values="0 0 0 0 0 0 0 0 0 0 0 0 0 0 0 0 0 0 127 0" result="hardAlpha"/>
<feOffset dx="2" dy="4"/>
<feGaussianBlur stdDeviation="2.5"/>
<feColorMatrix type="matrix" values="0 0 0 0 0 0 0 0 0 0 0 0 0 0 0 0 0 0 0.65 0"/>
<feBlend mode="normal" in2="BackgroundImageFix" result="effect1_dropShadow_815_427"/>
<feBlend mode="normal" in="SourceGraphic" in2="effect1_dropShadow_815_427" result="shape"/>
</filter>
<linearGradient id="paint0_linear_815_427" x1="3.9004" y1="4.34465" x2="48.1586" y2="90.887" gradientUnits="userSpaceOnUse">
<stop stop-color="#262626" stop-opacity="0.24"/>
<stop offset="1" stop-color="#262626" stop-opacity="0"/>
</linearGradient>
<linearGradient id="paint1_linear_815_427" x1="13.7843" y1="23.0819" x2="39.7113" y2="106.248" gradientUnits="userSpaceOnUse">
<stop/>
<stop offset="1" stop-opacity="0"/>
</linearGradient>
</defs>
</svg>
