<svg xmlns="http://www.w3.org/2000/svg" width="39" height="48" viewBox="0 0 39 48" fill="none">
<path fill-rule="evenodd" clip-rule="evenodd" d="M16.8126 48H14.5485C13.9342 47.8962 13.7012 47.5719 13.6984 46.9246C13.6915 45.3699 13.5975 43.8195 12.2511 42.6904C12.1242 42.5838 12.0833 42.2896 12.1145 42.1001C12.3001 40.9699 11.7072 40.1768 11.1166 39.3868C10.9129 39.1144 10.7095 38.8423 10.5384 38.5569C10.463 38.4314 10.0116 38.4551 9.76081 38.516C9.6144 38.5518 9.46805 38.588 9.3217 38.6241C7.66384 39.0342 6.00698 39.4439 4.26937 39.2218C2.40634 38.9837 1.73293 37.9156 2.30262 36.1396C2.60894 35.1852 2.44362 34.7307 1.44687 33.9011C1.60366 33.6633 1.76273 33.4217 1.92602 33.1737C2.01127 33.0442 2.09768 32.9129 2.18552 32.7796C2.17476 32.7651 2.164 32.7485 2.15269 32.731C2.1265 32.6906 2.09734 32.6457 2.05829 32.6112C1.16522 31.8198 1.16625 31.8183 1.83001 30.8412L1.86016 30.7968C2.00418 30.5844 2.10028 30.3403 2.2079 30.067C2.26135 29.9313 2.31764 29.7883 2.38406 29.6384C2.20449 29.5845 2.03527 29.5348 1.87332 29.4873C1.53463 29.3879 1.22776 29.2979 0.924591 29.1975C-0.00692433 28.8897 -0.255707 28.1326 0.274677 27.3165C0.342133 27.2128 0.409628 27.1091 0.477126 27.0054C1.22537 25.8559 1.97404 24.7057 2.67498 23.5288C2.81355 23.2968 2.82733 22.7954 2.66971 22.6202C1.73293 21.5801 1.92863 20.469 2.64864 19.5552C3.64013 18.2954 3.25439 17.3183 2.65472 16.0385C2.64698 16.0219 2.6392 16.0054 2.63141 15.9887C2.16352 14.9903 1.60952 13.808 2.13041 12.5622C2.18553 12.4304 2.15926 12.2682 2.13251 12.1031C2.1156 11.9988 2.09851 11.8933 2.10164 11.7935C2.16526 9.75335 2.81882 7.8996 3.8022 6.11358C4.61581 4.63579 5.69156 3.37844 7.06675 2.47421C8.45491 1.56156 10.023 0.911846 11.7049 0.641299C12.2732 0.549839 12.8421 0.464136 13.4111 0.378439C13.9143 0.302646 14.4174 0.226858 14.92 0.147098C14.9861 0.13675 15.0471 0.095873 15.1083 0.0548891C15.1371 0.0355514 15.166 0.0161898 15.1955 0H17.1364C17.3337 0.0159849 17.5311 0.0310645 17.7285 0.0461415C18.1745 0.0802102 18.6202 0.114265 19.0654 0.158721C19.1311 0.165213 19.1968 0.171598 19.2625 0.177985C19.7528 0.225622 20.2439 0.273343 20.7259 0.365941C23.1237 0.828478 25.5151 1.35755 27.7631 2.30908C29.1026 2.87622 30.3729 3.63696 31.6018 4.42256C35.3287 6.80498 37.5215 10.2115 38.2832 14.525C38.3389 14.8402 38.4024 15.1557 38.466 15.4714C38.6428 16.3492 38.8199 17.2286 38.8282 18.1083C38.8307 18.3726 38.8368 18.6377 38.8429 18.903C38.8787 20.4581 38.9147 22.0236 38.2245 23.5236C37.8938 24.2419 37.6299 24.9898 37.3659 25.7382C37.1787 26.269 36.9913 26.8 36.78 27.3209C36.5855 27.8003 36.2885 28.256 35.9611 28.6624C35.8271 28.8288 35.6939 28.9965 35.5606 29.1643C34.9423 29.9427 34.3212 30.7247 33.5985 31.3964C32.6719 32.2577 31.6662 33.0477 30.3421 33.3527C29.715 33.4968 29.1108 33.7398 28.45 34.0055C28.1386 34.1308 27.8146 34.2611 27.4697 34.3884C28.2355 35.6602 29.0933 37.0843 29.975 38.5481C29.9158 38.5527 29.8525 38.5579 29.7863 38.5634C29.6454 38.5752 29.4917 38.5879 29.3376 38.5978C26.8129 38.7573 24.9215 40.0002 23.4625 41.9722C22.9536 42.6604 22.4455 43.3506 21.9714 44.0628C20.7056 45.9627 19.1623 47.495 16.8126 48ZM31.8428 21.4868L31.8128 21.4H26.886C26.8161 22.7688 26.5266 23.7664 26.0175 24.3929C25.5083 25.0194 24.6448 25.3327 23.4268 25.3327C22.1689 25.3327 21.1805 24.8845 20.4617 23.9881C19.7429 23.0916 19.3835 21.9157 19.3835 20.4603V16.036C19.3835 14.5902 19.713 13.4215 20.3719 12.5299C21.0308 11.6383 21.9343 11.1925 23.0824 11.1925C24.4401 11.1925 25.401 11.5251 25.9651 12.1902C26.5291 12.8552 26.8461 13.8721 26.916 15.2408H31.8428L31.8727 15.1541C31.683 12.6865 30.8594 10.7829 29.4018 9.4431C27.9443 8.1033 25.8378 7.43341 23.0824 7.43341C20.4867 7.43341 18.3777 8.23583 16.7554 9.8407C15.1331 11.4456 14.322 13.5203 14.322 16.065V20.4603C14.322 23.0146 15.1656 25.0917 16.8528 26.6917C18.54 28.2918 20.7313 29.0918 23.4268 29.0918C26.1123 29.0918 28.1614 28.4412 29.574 27.14C30.9867 25.8387 31.7429 23.9543 31.8428 21.4868Z" fill="url(#paint0_linear_2691_6922)"/>
<defs>
<linearGradient id="paint0_linear_2691_6922" x1="17.1436" y1="-18.6977" x2="54.5946" y2="-8.18948" gradientUnits="userSpaceOnUse">
<stop stop-color="#1E6EA9"/>
<stop offset="0.520833" stop-color="#4BC270"/>
<stop offset="1" stop-color="#FFCB3C"/>
</linearGradient>
</defs>
</svg>