<svg width="204" height="62" viewBox="0 0 204 62" fill="none" xmlns="http://www.w3.org/2000/svg">
<path id="Combined Shape" fill-rule="evenodd" clip-rule="evenodd" d="M18.5171 61.0936H21.3988C24.3894 60.4508 26.3538 58.5005 27.9648 56.0824C28.5682 55.1759 29.2149 54.2974 29.8627 53.4215C31.7197 50.9116 34.1271 49.3296 37.3405 49.1266C37.5366 49.1141 37.7323 49.0978 37.9116 49.0829C37.9958 49.0759 38.0763 49.0692 38.1517 49.0633C37.0295 47.2002 35.9377 45.3877 34.963 43.769C35.402 43.6069 35.8144 43.4411 36.2108 43.2817C37.0518 42.9435 37.8208 42.6342 38.6189 42.4508C40.3042 42.0626 41.5842 41.0571 42.7636 39.9608C43.6834 39.1059 44.474 38.1106 45.2609 37.1199L45.261 37.1198C45.4307 36.9062 45.6002 36.6928 45.7708 36.4811C46.1874 35.9638 46.5655 35.3837 46.813 34.7736C46.9734 34.3781 47.123 33.9781 47.2682 33.5762C47.5741 34.2634 48.0201 34.868 48.6062 35.3898C49.8324 36.4817 51.4239 37.0276 53.3807 37.0276C54.6133 37.0276 55.6615 36.7853 56.5256 36.3007C57.3897 35.8161 58.1266 35.1629 58.7366 34.3409C58.8382 34.758 58.9621 35.1629 59.1082 35.5554C59.2544 35.948 59.4164 36.3038 59.5943 36.6228L65.9603 36.6412C65.5918 35.7456 65.3154 34.8439 65.1312 33.936C64.9469 33.0282 64.8548 32.0406 64.8548 30.9733V23.4652C64.8548 21.1833 64.0638 19.429 62.4818 18.2022C60.8998 16.9754 58.8382 16.362 56.2969 16.362C53.5777 16.362 51.3921 16.9723 49.7403 18.193C49.3959 18.4475 49.0893 18.715 48.8206 18.9953C48.7878 18.8259 48.7562 18.6565 48.7263 18.4872C47.7567 12.997 44.9657 8.66126 40.2222 5.62895C38.6581 4.62907 37.0413 3.66081 35.3364 2.93895C32.4752 1.72786 29.4315 1.05447 26.3796 0.465763C25.7661 0.347906 25.141 0.287167 24.5171 0.226536L24.2662 0.202018C23.6995 0.145435 23.1322 0.102091 22.5646 0.0587288L22.5645 0.0587243C22.3133 0.0395359 22.0621 0.020344 21.8109 0H19.3406C19.3031 0.0206062 19.2663 0.0452492 19.2296 0.0698619C19.1517 0.122026 19.074 0.174053 18.99 0.187224C18.3502 0.288742 17.7099 0.385203 17.0694 0.48167C16.3453 0.590744 15.6211 0.699825 14.8978 0.816234C12.7571 1.16058 10.7613 1.98753 8.99448 3.14913C7.24416 4.30002 5.87495 5.90035 4.83941 7.78126C3.58778 10.0545 2.75594 12.4139 2.67497 15.0105C2.67098 15.1376 2.69274 15.2719 2.71426 15.4047C2.7483 15.6148 2.78174 15.8211 2.71159 15.989C2.0486 17.5746 2.75372 19.0793 3.34925 20.3502L3.37892 20.4135C4.14217 22.0424 4.63312 23.2861 3.37118 24.8895C2.45477 26.0527 2.20568 27.4668 3.398 28.7906C3.59861 29.0135 3.58107 29.6517 3.4047 29.9471C2.51258 31.4449 1.55971 32.9088 0.607384 34.3719L0.607304 34.372L0.349639 34.768C-0.325425 35.8066 -0.00877795 36.7703 1.17684 37.1621C1.56256 37.2898 1.953 37.4043 2.38388 37.5308L2.38436 37.5309L2.38457 37.531C2.59064 37.5915 2.80595 37.6546 3.03442 37.7233C2.94989 37.914 2.87824 38.096 2.81021 38.2688C2.67323 38.6167 2.55093 38.9273 2.36761 39.1976L2.32923 39.2541C1.48442 40.4978 1.48311 40.4997 2.61979 41.507C2.66949 41.5508 2.70661 41.6081 2.73994 41.6595L2.73996 41.6595C2.75435 41.6817 2.76804 41.7028 2.78173 41.7213L2.45228 42.2216L2.45156 42.2227C2.24368 42.5384 2.04119 42.846 1.84159 43.1487C3.11023 44.2047 3.32064 44.7832 2.93077 45.9978C2.20568 48.2583 3.06279 49.6178 5.43402 49.9209C7.64563 50.2035 9.75447 49.682 11.8646 49.1601C12.0508 49.1141 12.2371 49.068 12.4234 49.0225C12.7427 48.945 13.3172 48.9148 13.4131 49.0745C13.6309 49.4378 13.8898 49.7841 14.149 50.1308C14.9007 51.1364 15.6554 52.1458 15.4192 53.5842C15.3795 53.8255 15.4316 54.2 15.593 54.3357C17.3067 55.7727 17.4263 57.746 17.4351 59.7248C17.4387 60.5487 17.7352 60.9614 18.5171 61.0936ZM56.0491 24.8454C53.172 24.8454 50.9704 25.3001 49.4443 26.2095C49.4716 25.4941 49.4551 24.7759 49.4386 24.0594L49.4386 24.0591C49.4308 23.7215 49.4231 23.3843 49.4199 23.0479C49.4193 22.9865 49.4181 22.9252 49.4163 22.8638L53.6666 22.8764C53.6666 22.1648 53.8477 21.6403 54.2098 21.303C54.572 20.9656 55.1215 20.7969 55.8585 20.7969C56.7226 20.7969 57.3611 21.0239 57.774 21.4778C58.187 21.9317 58.3935 22.5819 58.3935 23.4284V24.8454H56.0491ZM83.5287 31.0469C83.5287 30.5562 83.2396 30.1176 82.6614 29.7312C82.0833 29.3447 81.0318 28.9981 79.507 28.6914C77.1054 28.2375 75.2948 27.5321 74.0749 26.5752C72.8551 25.6183 72.2452 24.3117 72.2452 22.6555C72.2452 20.9012 73.0076 19.4137 74.5324 18.193C76.0572 16.9723 78.122 16.362 80.7268 16.362C83.4715 16.362 85.657 16.9539 87.2835 18.1378C88.9099 19.3217 89.685 20.8521 89.6088 22.7291L89.5706 22.8395H83.319C83.319 22.0544 83.1125 21.4594 82.6995 21.0545C82.2866 20.6497 81.6227 20.4473 80.7078 20.4473C80.0343 20.4473 79.4689 20.6251 79.0115 20.9809C78.554 21.3367 78.3253 21.7906 78.3253 22.3427C78.3253 22.8702 78.589 23.318 79.1163 23.686C79.6436 24.0541 80.7078 24.3853 82.3088 24.6798C84.8247 25.1582 86.6894 25.8728 87.9029 26.8236C89.1164 27.7744 89.7231 29.1208 89.7231 30.8629C89.7231 32.654 88.9004 34.1293 87.2549 35.2886C85.6094 36.4479 83.4334 37.0276 80.7268 37.0276C77.9187 37.0276 75.6982 36.3406 74.0654 34.9666C72.4326 33.5925 71.6543 32.059 71.7306 30.366L71.7687 30.2556H77.601C77.6264 31.2003 77.9219 31.8811 78.4873 32.2983C79.0527 32.7154 79.8564 32.9239 80.8984 32.9239C81.7624 32.9239 82.4168 32.7614 82.8616 32.4363C83.3063 32.1112 83.5287 31.648 83.5287 31.0469ZM100.378 11.7798V16.73H103.866V21.0361H100.378V30.1636C100.378 30.8751 100.527 31.3873 100.826 31.7002C101.124 32.013 101.528 32.1694 102.036 32.1694C102.443 32.1694 102.763 32.1572 102.998 32.1326C103.234 32.1081 103.535 32.059 103.904 31.9854L104.361 36.5859C103.65 36.7454 103.008 36.8589 102.436 36.9264C101.864 36.9939 101.191 37.0276 100.416 37.0276C98.2938 37.0276 96.6864 36.4817 95.5937 35.3898C94.5009 34.2979 93.9545 32.5681 93.9545 30.2004V21.0361H91.0574V16.73H93.9545V11.7798H100.378ZM127.348 10.8413H117.246V36.6411H116.217V10.8413H106.115V9.8476H127.348V10.8413ZM135.753 33.0343L136.515 35.0218H136.63L136.744 34.7273L143.873 16.73H145.016L135.848 39.9535C135.289 41.3521 134.638 42.49 133.895 43.3671C133.151 44.2443 131.966 44.6829 130.34 44.6829C130.099 44.6829 129.832 44.6614 129.54 44.6185C129.247 44.5756 129.031 44.5295 128.891 44.4805L129.063 43.542C129.203 43.5788 129.412 43.6156 129.692 43.6524C129.972 43.6892 130.188 43.7076 130.34 43.7076C131.509 43.7076 132.421 43.3763 133.075 42.7139C133.73 42.0514 134.311 41.0699 134.819 39.7695L136.058 36.5307L127.843 16.73H128.968L135.753 33.0343ZM164.705 27.0536C164.705 30.1207 164.019 32.5497 162.646 34.3409C161.274 36.132 159.381 37.0276 156.966 37.0276C155.353 37.0276 153.945 36.7148 152.745 36.0891C151.544 35.4634 150.607 34.6169 149.933 33.5496V44.2965H148.904V16.73H149.705L149.914 20.3C150.6 19.0732 151.534 18.1102 152.716 17.4109C153.898 16.7116 155.302 16.362 156.928 16.362C159.355 16.362 161.258 17.2913 162.637 19.1499C164.015 21.0085 164.705 23.5143 164.705 26.6672V27.0536ZM163.657 26.6672C163.657 23.9068 163.082 21.6649 161.932 19.9412C160.782 18.2175 159.121 17.3557 156.948 17.3557C154.953 17.3557 153.403 17.8403 152.297 18.8095C151.192 19.7786 150.404 20.9686 149.934 22.3795V31.691C150.442 33.0159 151.293 34.071 152.488 34.8561C153.682 35.6413 155.182 36.0339 156.986 36.0339C159.159 36.0339 160.814 35.2242 161.951 33.6048C163.088 31.9854 163.657 29.8017 163.657 27.0536V26.6672ZM177.342 37.0276C174.991 37.0276 172.961 36.1106 171.252 34.2765C169.543 32.4424 168.688 30.1636 168.688 27.4401V26.2623C168.688 23.4039 169.514 21.0392 171.166 19.1683C172.818 17.2974 174.857 16.362 177.284 16.362C179.61 16.362 181.506 17.0981 182.974 18.5702C184.441 20.0424 185.175 22.0176 185.175 24.4957V26.0231H169.718V27.4401C169.718 29.8446 170.448 31.8781 171.91 33.5404C173.371 35.2027 175.182 36.0339 177.342 36.0339C178.879 36.0339 180.166 35.8315 181.201 35.4266C182.237 35.0218 183.123 34.4145 183.86 33.6048L184.413 34.3777C183.6 35.2487 182.612 35.9081 181.449 36.3559C180.286 36.8037 178.917 37.0276 177.342 37.0276ZM177.285 17.3557C175.239 17.3557 173.536 18.0764 172.177 19.5179C170.817 20.9594 170.048 22.7598 169.87 24.919L169.928 25.0294H184.146V24.4221C184.146 22.3979 183.511 20.7141 182.24 19.3707C180.97 18.0274 179.318 17.3557 177.285 17.3557ZM202.616 31.7646C202.616 30.7095 202.149 29.7496 201.215 28.8847C200.281 28.0197 198.651 27.3419 196.326 26.8512C193.873 26.3482 192.098 25.7011 190.999 24.9098C189.899 24.1185 189.35 22.9438 189.35 21.3858C189.35 19.9627 189.972 18.7696 191.218 17.8066C192.463 16.8435 194.14 16.362 196.25 16.362C198.524 16.362 200.316 16.8772 201.624 17.9078C202.933 18.9383 203.556 20.2816 203.492 21.9378L203.454 22.0483H202.577C202.577 20.7478 202.009 19.6406 200.872 18.7267C199.734 17.8127 198.194 17.3557 196.25 17.3557C194.318 17.3557 192.857 17.7575 191.866 18.561C190.875 19.3646 190.379 20.2939 190.379 21.349C190.379 22.3918 190.798 23.2812 191.637 24.0173C192.476 24.7534 194.14 25.3974 196.631 25.9495C198.931 26.4648 200.675 27.1671 201.863 28.0566C203.051 28.946 203.645 30.1881 203.645 31.783C203.645 33.3411 202.984 34.6047 201.663 35.5738C200.341 36.543 198.588 37.0276 196.402 37.0276C194 37.0276 192.117 36.5093 190.751 35.4726C189.385 34.436 188.746 33.1754 188.835 31.691L188.873 31.5806H189.712C189.814 33.1509 190.512 34.2857 191.809 34.985C193.105 35.6843 194.636 36.0339 196.402 36.0339C198.308 36.0339 199.82 35.6045 200.938 34.7457C202.056 33.887 202.616 32.8933 202.616 31.7646ZM57.0975 32.2246C56.5638 32.47 55.9793 32.5927 55.344 32.5927C54.7086 32.5927 54.1908 32.4178 53.7906 32.0682C53.3903 31.7186 53.1902 31.2616 53.1902 30.6972C53.1902 29.9611 53.4221 29.3539 53.8859 28.8754C54.3497 28.397 55.0898 28.1577 56.1064 28.1577H58.3935V31.2677C58.0632 31.6603 57.6312 31.9792 57.0975 32.2246ZM31.8427 21.4868L31.8128 21.4001H26.886C26.8161 22.7688 26.5266 23.7664 26.0174 24.3929C25.5083 25.0194 24.6447 25.3327 23.4268 25.3327C22.1689 25.3327 21.1805 24.8845 20.4617 23.9881C19.7429 23.0917 19.3835 21.9157 19.3835 20.4603V16.0361C19.3835 14.5902 19.713 13.4215 20.3719 12.53C21.0308 11.6384 21.9343 11.1926 23.0823 11.1926C24.4401 11.1926 25.401 11.5251 25.965 12.1902C26.5291 12.8553 26.8461 13.8721 26.9159 15.2409H31.8427L31.8727 15.1541C31.683 12.6866 30.8594 10.7829 29.4018 9.44312C27.9442 8.10332 25.8378 7.43343 23.0823 7.43343C20.4867 7.43343 18.3777 8.23585 16.7554 9.84072C15.1331 11.4456 14.322 13.5203 14.322 16.065V20.4603C14.322 23.0146 15.1655 25.0917 16.8527 26.6918C18.5399 28.2918 20.7313 29.0918 23.4268 29.0918C26.1123 29.0918 28.1614 28.4412 29.574 27.14C30.9867 25.8387 31.7429 23.9544 31.8427 21.4868Z" fill="url(#paint0_linear_815_382)"/>
<defs>
<linearGradient id="paint0_linear_815_382" x1="89.8433" y1="-23.7981" x2="180.526" y2="80.968" gradientUnits="userSpaceOnUse">
<stop stop-color="#1E6EA9"/>
<stop offset="0.520833" stop-color="#4BC270"/>
<stop offset="1" stop-color="#FFCB3C"/>
</linearGradient>
</defs>
</svg>
