<svg width="245" height="150" viewBox="0 0 245 150" fill="none" xmlns="http://www.w3.org/2000/svg">
<g clip-path="url(#clip0_815_291)">
<g opacity="0.5">
<g filter="url(#filter0_d_815_291)">
<rect x="-0.285156" y="44.2094" width="83.8889" height="35" rx="17.5" fill="white" shape-rendering="crispEdges"/>
<path opacity="0.1" d="M22.0059 64.2435C22.0059 62.5551 20.9217 61.7108 18.7533 61.7108L18.2468 61.7286C17.761 61.7286 17.4203 61.6338 17.2248 61.4442C17.0293 61.2546 16.9315 60.7955 16.9315 60.0668C16.9315 59.3381 16.9997 58.5945 17.1359 57.8362C17.2781 57.0719 17.4144 56.5891 17.5447 56.3877C17.681 56.1862 17.9032 56.0529 18.2112 55.9878C18.5193 55.9226 19.0347 55.89 19.7575 55.89C20.4803 55.89 21.0283 55.8811 21.4016 55.8634L22.2369 55.81C22.5331 55.7863 22.7138 55.7745 22.779 55.7745C23.3478 55.7745 23.6321 55.9404 23.6321 56.2721C23.6321 56.7757 23.3833 57.1016 22.8856 57.2497C22.6487 57.3208 22.0266 57.3711 21.0194 57.4008C20.0123 57.4304 19.4139 57.4985 19.2243 57.6052C19.0347 57.7118 18.8629 57.934 18.7089 58.2717C18.5548 58.6094 18.4778 58.9856 18.4778 59.4003C18.4778 59.815 18.5252 60.0638 18.62 60.1468C18.7148 60.2238 19.0762 60.2623 19.7042 60.2623C21.6534 60.2623 22.9567 60.9643 23.6144 62.3684C23.8395 62.8542 23.9521 63.4111 23.9521 64.0391C23.9521 65.23 23.5847 66.1808 22.8501 66.8918C22.4532 67.2769 21.9822 67.5701 21.4371 67.7716C20.8921 67.9789 20.3381 68.0826 19.7753 68.0826H19.482C18.6822 68.0826 17.9802 67.9108 17.3759 67.5672C16.7775 67.2235 16.4783 66.8414 16.4783 66.4208C16.4783 65.9942 16.6679 65.7809 17.0471 65.7809C17.213 65.7809 17.5803 65.9113 18.149 66.1719C18.7237 66.4326 19.2984 66.563 19.873 66.563C20.4477 66.563 20.9454 66.3526 21.366 65.932C21.7926 65.5054 22.0059 64.9426 22.0059 64.2435ZM31.0525 58.2539C31.0525 58.1887 31.0407 58.1561 31.017 58.1561C30.9933 58.1561 30.6941 58.5886 30.1194 59.4536C29.5448 60.3126 28.9464 61.1776 28.3243 62.0485C27.7022 62.9194 27.3912 63.3874 27.3912 63.4526C27.3912 63.5119 27.4919 63.5415 27.6934 63.5415H28.1199L28.191 63.5326H28.9375C29.9624 63.5326 30.5341 63.5 30.6526 63.4348C30.7771 63.3697 30.8393 63.186 30.8393 62.8839C30.8511 62.7772 30.857 62.7002 30.857 62.6528L30.8837 62.1729V62.0041L30.9192 61.3642C30.9192 61.2813 30.9192 61.1983 30.9192 61.1154L30.9992 59.5958V59.4447L31.0348 58.8315L31.0525 58.4583V58.2539ZM31.879 68.0026C31.4465 68.0026 31.1266 67.8663 30.9192 67.5938C30.7178 67.3213 30.6171 66.8592 30.6171 66.2075C30.6171 65.7987 30.4305 65.4906 30.0572 65.2833C29.4944 64.9693 28.819 64.8123 28.0311 64.8123L27.8355 64.8034C27.7052 64.7975 27.4801 64.7945 27.1602 64.7945C26.8402 64.7945 26.5855 64.7382 26.3959 64.6257C26.0819 64.442 25.9249 64.1754 25.9249 63.8259C25.9249 63.2749 27.3349 61.1184 30.155 57.3563C30.8778 56.3966 31.4554 55.9167 31.8879 55.9167C32.3204 55.9167 32.5899 56.05 32.6966 56.3166C32.7736 56.5062 32.8121 57.4274 32.8121 59.0803C32.8121 60.7333 32.8743 61.7789 32.9987 62.2174C33.1291 62.6498 33.3127 63.0083 33.5497 63.2927C33.609 63.3637 33.7215 63.4704 33.8874 63.6126C34.0533 63.7488 34.1362 63.8673 34.1362 63.968V64.0569C34.1362 64.4302 33.9526 64.7915 33.5853 65.1411C33.2239 65.4906 33.0432 65.7276 33.0432 65.852L33.0876 66.483C33.0876 67.4961 32.6847 68.0026 31.879 68.0026ZM38.3752 58.1295V58.3961C38.3752 58.9115 38.5914 59.3855 39.0239 59.8179C39.4564 60.2504 39.9393 60.4667 40.4725 60.4667L40.5347 60.4578C40.979 60.4578 41.3671 60.2297 41.6988 59.7735C42.0306 59.3173 42.1965 58.8345 42.1965 58.325V58.2539C42.1965 57.7621 42.0336 57.3356 41.7077 56.9742C41.3819 56.6128 40.9494 56.4321 40.4103 56.4321H40.1437C39.6815 56.4321 39.2698 56.595 38.9084 56.9209C38.5529 57.2408 38.3752 57.6437 38.3752 58.1295ZM42.4275 64.6523V64.3324C42.4275 63.7399 42.2143 63.2304 41.7877 62.8039C41.1834 62.1996 40.5761 61.8974 39.9659 61.8974H39.6727C39.1928 61.8974 38.7366 62.2085 38.3041 62.8305C38.0197 63.2393 37.8775 63.734 37.8775 64.3146L37.8687 64.3946C37.8687 65.0226 38.0671 65.5558 38.4641 65.9942C38.8669 66.4267 39.3794 66.6429 40.0015 66.6429H40.3214C40.9316 66.6429 41.4352 66.4445 41.8321 66.0475C42.2291 65.6506 42.4275 65.1855 42.4275 64.6523ZM43.8139 58.3072C43.8139 59.0122 43.491 59.738 42.8452 60.4844C42.5371 60.8399 42.3831 61.0502 42.3831 61.1154C42.3831 61.1806 42.4749 61.2872 42.6586 61.4353C43.6539 62.2351 44.1516 63.2067 44.1516 64.3502V64.5457C44.1516 65.458 43.8109 66.2312 43.1296 66.8651C42.7682 67.2028 42.3298 67.4635 41.8144 67.6471C41.2989 67.8249 40.8102 67.9137 40.348 67.9137H39.726C38.7603 67.9137 37.9397 67.6294 37.2644 67.0606C36.8674 66.7288 36.583 66.3586 36.4112 65.9498C36.2394 65.541 36.1535 65.1589 36.1535 64.8034V64.4124C36.1535 63.5178 36.5801 62.6558 37.4332 61.8263C37.7887 61.4768 37.9664 61.2872 37.9664 61.2576C37.9664 61.222 37.8272 61.0443 37.5487 60.7244C36.9326 60.0075 36.6245 59.2166 36.6245 58.3516C36.6245 57.4807 36.9652 56.758 37.6465 56.1833C38.3337 55.6027 39.2135 55.3124 40.2858 55.3124H40.4902C41.4737 55.3124 42.2735 55.5819 42.8897 56.1211C43.5058 56.6543 43.8139 57.383 43.8139 58.3072Z" fill="#7B7B7B"/>
<path opacity="0.05" d="M57.204 55.3253C56.5304 55.3253 55.8677 55.5223 55.2801 55.8945C53.3992 57.0914 52.7544 59.7553 53.8471 61.8352C54.8072 63.6671 59.1278 67.0315 60.4283 68.0168C60.5644 68.119 60.7543 68.119 60.8905 68.0168C62.1909 67.0279 66.5115 63.6634 67.4717 61.8352C68.5644 59.7553 67.9195 57.0878 66.0386 55.8945C65.4547 55.5223 64.7919 55.3253 64.1184 55.3253C62.9397 55.3253 61.8363 55.9091 61.0911 56.9236L60.6612 57.5147L60.2313 56.9236C59.4861 55.9091 58.3862 55.3253 57.204 55.3253Z" fill="#838383"/>
<rect x="0.214844" y="44.7094" width="82.8889" height="34" rx="17" stroke="#292929" stroke-opacity="0.05" shape-rendering="crispEdges"/>
</g>
<g filter="url(#filter1_d_815_291)">
<rect x="99.8691" y="79.2094" width="81.8889" height="35" rx="17.5" fill="white" shape-rendering="crispEdges"/>
<path opacity="0.1" d="M117.223 92.8184V92.7207C117.223 92.5015 117.463 92.2438 117.943 91.9475C119.057 91.2662 119.8 90.9256 120.174 90.9256H120.316C120.612 90.9256 120.808 91.0322 120.902 91.2455C120.997 91.4588 121.045 91.8942 121.045 92.5518L121.027 93.0673C121.015 93.2983 121.009 93.4168 121.009 93.4227L120.947 96.2931V96.6575L120.929 97.3862C120.929 97.3862 120.929 97.7121 120.929 98.3637C120.929 98.8969 120.935 99.2169 120.947 99.3235C121 99.7975 121.154 100.239 121.409 100.648C121.67 101.05 121.8 101.403 121.8 101.705C121.8 102.001 121.634 102.238 121.302 102.416C120.976 102.594 120.559 102.683 120.049 102.683H119.88C119.294 102.683 118.781 102.538 118.343 102.247C118.094 102.081 117.97 101.859 117.97 101.581C117.97 101.302 118.106 100.979 118.379 100.612C118.657 100.245 118.835 99.8982 118.912 99.5723C118.995 99.2406 119.036 98.3223 119.036 96.8175C119.036 95.3067 118.95 94.3321 118.779 93.8937C118.666 93.6034 118.441 93.4109 118.103 93.3161C117.517 93.1502 117.223 92.9843 117.223 92.8184ZM128.234 101.625H128.474C129.019 101.625 129.499 101.4 129.914 100.95C130.334 100.494 130.545 99.9337 130.545 99.2702L130.562 99.1013L130.571 98.8347V98.7459L130.562 98.6659C130.562 97.9194 130.376 97.3418 130.002 96.933C129.629 96.5242 129.14 96.3198 128.536 96.3198L128.456 96.3287C127.834 96.3287 127.316 96.5212 126.901 96.9063C126.486 97.2855 126.279 97.7624 126.279 98.3371V98.9236C126.279 99.753 126.483 100.411 126.892 100.896C127.307 101.382 127.754 101.625 128.234 101.625ZM129.487 90.7389C130.654 90.7389 131.238 91.0292 131.238 91.6098C131.238 92.0186 130.873 92.2556 130.145 92.3208C129.7 92.3563 129.431 92.383 129.336 92.4008C128.264 92.5726 127.461 93.091 126.928 93.9559C126.714 94.3055 126.608 94.6402 126.608 94.9601C126.608 95.3452 126.815 95.5378 127.23 95.5378L128.918 95.4134C129.919 95.4134 130.737 95.7333 131.371 96.3731C132.011 97.007 132.331 97.8424 132.331 98.8792V99.1102C132.331 99.6138 132.236 100.1 132.046 100.568C131.661 101.498 131.01 102.155 130.091 102.541C129.558 102.766 129.055 102.878 128.581 102.878H128.118C127.603 102.872 127.094 102.757 126.59 102.532C125.63 102.093 124.976 101.323 124.626 100.221C124.401 99.4983 124.288 98.7399 124.288 97.9461V97.4662C124.288 96.4827 124.422 95.5644 124.688 94.7113C125.221 93.0051 126.184 91.832 127.576 91.1922C128.246 90.89 128.883 90.7389 129.487 90.7389ZM139.822 94.2492C139.822 92.9399 139.179 92.2852 137.894 92.2852C137.384 92.2852 136.884 92.4985 136.392 92.9251C135.681 93.5412 135.254 93.8493 135.112 93.8493C134.798 93.8493 134.641 93.5945 134.641 93.085C134.641 92.5696 135.003 92.0601 135.725 91.5565C136.448 91.0529 137.284 90.8011 138.232 90.8011H138.516C138.972 90.8011 139.419 90.8871 139.858 91.0589C140.302 91.2307 140.664 91.4647 140.942 91.7609C141.481 92.3297 141.751 93.0584 141.751 93.947C141.751 95.2504 141.093 96.4975 139.778 97.6884C139.375 98.0557 138.957 98.4289 138.525 98.8081C138.092 99.1872 137.728 99.5309 137.432 99.8389C137.141 100.141 136.996 100.428 136.996 100.701C136.996 100.973 137.506 101.11 138.525 101.11C139.099 101.11 139.615 101.08 140.071 101.021L140.542 100.95L140.764 100.905C141.019 100.864 141.22 100.843 141.369 100.843C141.807 100.843 142.026 101.062 142.026 101.501C142.026 101.933 141.845 102.235 141.484 102.407C141.129 102.573 140.471 102.656 139.511 102.656H137.832L137.556 102.647C136.022 102.647 135.13 102.603 134.881 102.514C134.638 102.419 134.517 102.147 134.517 101.696C134.517 101.24 134.807 100.648 135.388 99.9189C135.737 99.4805 136.339 98.8703 137.192 98.0883C138.051 97.3062 138.703 96.619 139.147 96.0265C139.597 95.4282 139.822 94.8357 139.822 94.2492Z" fill="#7B7B7B"/>
<path opacity="0.05" d="M155.358 90.3253C154.685 90.3253 154.022 90.5223 153.434 90.8945C151.554 92.0914 150.909 94.7553 152.001 96.8352C152.962 98.6671 157.282 102.032 158.583 103.017C158.719 103.119 158.909 103.119 159.045 103.017C160.345 102.028 164.666 98.6634 165.626 96.8352C166.719 94.7553 166.074 92.0878 164.193 90.8945C163.609 90.5223 162.946 90.3253 162.273 90.3253C161.094 90.3253 159.991 90.9091 159.245 91.9236L158.815 92.5147L158.386 91.9236C157.64 90.9091 156.541 90.3253 155.358 90.3253Z" fill="#838383"/>
<rect x="100.369" y="79.7094" width="80.8889" height="34" rx="17" stroke="#292929" stroke-opacity="0.05" shape-rendering="crispEdges"/>
</g>
<g filter="url(#filter2_d_815_291)">
<rect x="31.0586" y="123.599" width="73.8889" height="35" rx="17.5" fill="white" shape-rendering="crispEdges"/>
<path opacity="0.1" d="M50.1092 137.519V137.786C50.1092 138.302 50.3254 138.775 50.7579 139.208C51.1904 139.64 51.6732 139.857 52.2064 139.857L52.2687 139.848C52.713 139.848 53.101 139.62 53.4328 139.164C53.7646 138.707 53.9305 138.224 53.9305 137.715V137.644C53.9305 137.152 53.7675 136.726 53.4417 136.364C53.1159 136.003 52.6834 135.822 52.1442 135.822H51.8776C51.4155 135.822 51.0038 135.985 50.6424 136.311C50.2869 136.631 50.1092 137.034 50.1092 137.519ZM54.1615 144.042V143.722C54.1615 143.13 53.9482 142.62 53.5217 142.194C52.9174 141.59 52.3101 141.287 51.6999 141.287H51.4066C50.9268 141.287 50.4706 141.598 50.0381 142.221C49.7537 142.629 49.6115 143.124 49.6115 143.705L49.6026 143.785C49.6026 144.413 49.8011 144.946 50.198 145.384C50.6009 145.817 51.1134 146.033 51.7354 146.033H52.0554C52.6656 146.033 53.1692 145.834 53.5661 145.438C53.9631 145.041 54.1615 144.576 54.1615 144.042ZM55.5479 137.697C55.5479 138.402 55.225 139.128 54.5792 139.874C54.2711 140.23 54.1171 140.44 54.1171 140.505C54.1171 140.571 54.2089 140.677 54.3926 140.825C55.3879 141.625 55.8855 142.597 55.8855 143.74V143.936C55.8855 144.848 55.5449 145.621 54.8636 146.255C54.5022 146.593 54.0638 146.853 53.5483 147.037C53.0329 147.215 52.5441 147.304 52.082 147.304H51.46C50.4943 147.304 49.6737 147.019 48.9983 146.451C48.6014 146.119 48.317 145.749 48.1452 145.34C47.9734 144.931 47.8875 144.549 47.8875 144.193V143.802C47.8875 142.908 48.3141 142.046 49.1672 141.216C49.5227 140.867 49.7004 140.677 49.7004 140.648C49.7004 140.612 49.5612 140.434 49.2827 140.114C48.6666 139.398 48.3585 138.607 48.3585 137.742C48.3585 136.871 48.6992 136.148 49.3805 135.573C50.0677 134.993 50.9475 134.702 52.0198 134.702H52.2242C53.2077 134.702 54.0075 134.972 54.6236 135.511C55.2398 136.044 55.5479 136.773 55.5479 137.697ZM61.4842 146.877C61.2887 147.322 60.9451 147.544 60.4533 147.544C59.9616 147.544 59.7157 147.319 59.7157 146.868C59.7157 146.412 60.2371 144.866 61.2798 142.229C61.5701 141.501 61.97 140.615 62.4795 139.572C62.989 138.524 63.2437 137.854 63.2437 137.564C63.2437 137.268 63.0986 137.072 62.8083 136.977C62.5239 136.883 62.0085 136.835 61.262 136.835C60.5155 136.835 59.8786 136.894 59.3514 137.013C58.8241 137.131 58.5397 137.191 58.4982 137.191C58.0954 137.191 57.8939 136.969 57.8939 136.524C57.8939 136.074 58.0421 135.748 58.3383 135.547C58.6404 135.339 59.1588 135.236 59.8935 135.236L60.1067 135.244H61.4042C63.2645 135.244 64.4257 135.307 64.8878 135.431C65.2492 135.526 65.4299 135.751 65.4299 136.106V136.284C65.4299 136.675 64.6775 138.616 63.1727 142.105C62.8113 142.946 62.5565 143.583 62.4084 144.016C62.2662 144.442 62.0885 144.996 61.8752 145.677C61.6678 146.359 61.5375 146.759 61.4842 146.877Z" fill="#7B7B7B"/>
<path opacity="0.05" d="M78.5477 134.715C77.8742 134.715 77.2114 134.912 76.6239 135.285C74.743 136.481 74.0981 139.145 75.1908 141.225C76.151 143.057 80.4716 146.422 81.772 147.407C81.9082 147.509 82.0981 147.509 82.2342 147.407C83.5347 146.418 87.8553 143.053 88.8154 141.225C89.9081 139.145 89.2633 136.478 87.3824 135.285C86.7984 134.912 86.1356 134.715 85.4621 134.715C84.2834 134.715 83.18 135.299 82.4348 136.314L82.0049 136.905L81.575 136.314C80.8298 135.299 79.73 134.715 78.5477 134.715Z" fill="#838383"/>
<rect x="31.5586" y="124.099" width="72.8889" height="34" rx="17" stroke="#292929" stroke-opacity="0.05" shape-rendering="crispEdges"/>
</g>
<g filter="url(#filter3_d_815_291)">
<rect x="159.469" y="43.8253" width="85.8889" height="35" rx="17.5" fill="white" shape-rendering="crispEdges"/>
<path opacity="0.1" d="M176.699 57.4344V57.3366C176.699 57.1174 176.939 56.8597 177.419 56.5635C178.533 55.8822 179.276 55.5415 179.649 55.5415H179.792C180.088 55.5415 180.283 55.6482 180.378 55.8614C180.473 56.0747 180.52 56.5102 180.52 57.1678L180.503 57.6832C180.491 57.9143 180.485 58.0328 180.485 58.0387L180.423 60.9091V61.2735L180.405 62.0022C180.405 62.0022 180.405 62.328 180.405 62.9797C180.405 63.5129 180.411 63.8328 180.423 63.9395C180.476 64.4134 180.63 64.8548 180.885 65.2636C181.145 65.6665 181.276 66.019 181.276 66.3211C181.276 66.6173 181.11 66.8543 180.778 67.0321C180.452 67.2098 180.035 67.2987 179.525 67.2987H179.356C178.77 67.2987 178.257 67.1535 177.819 66.8632C177.57 66.6973 177.446 66.4752 177.446 66.1967C177.446 65.9183 177.582 65.5954 177.854 65.2281C178.133 64.8607 178.31 64.5142 178.387 64.1883C178.47 63.8565 178.512 62.9382 178.512 61.4334C178.512 59.9227 178.426 58.9481 178.254 58.5097C178.142 58.2194 177.917 58.0268 177.579 57.9321C176.992 57.7662 176.699 57.6003 176.699 57.4344ZM185.266 65.1747C185.337 65.1925 185.458 65.2014 185.63 65.2014C185.808 65.2014 185.965 65.2991 186.101 65.4947C186.237 65.6842 186.306 65.9153 186.306 66.1878V66.3922L186.297 66.4278V66.5077C186.285 66.5551 186.279 66.5936 186.279 66.6233C186.279 66.8839 186.184 67.0913 185.995 67.2453C185.811 67.3994 185.544 67.4764 185.195 67.4764H185.07C184.371 67.4764 184.022 67.2009 184.022 66.6499L183.995 66.4633V66.1789C183.995 65.9183 184.063 65.6931 184.199 65.5035C184.336 65.314 184.534 65.2192 184.795 65.2192C184.878 65.2014 184.928 65.1925 184.946 65.1925L185.141 65.1747H185.266ZM192.393 55.3905C194.366 55.3905 195.352 56.1754 195.352 57.7454C195.352 58.4682 195.139 59.1525 194.712 59.7983C194.292 60.4381 194.081 60.761 194.081 60.7669C194.081 60.8795 194.256 61.0543 194.606 61.2912C194.961 61.5282 195.29 61.8748 195.592 62.331C195.9 62.7812 196.054 63.2907 196.054 63.8595C196.054 64.4282 195.971 64.9348 195.805 65.3791C195.64 65.8235 195.349 66.2293 194.935 66.5966C194.526 66.9639 194.049 67.2424 193.504 67.432C192.959 67.6275 192.417 67.7252 191.878 67.7252H191.593C190.829 67.7252 190.142 67.5564 189.531 67.2187C188.921 66.8751 188.616 66.4989 188.616 66.0901C188.616 65.6753 188.809 65.468 189.194 65.468C189.36 65.468 189.745 65.5865 190.349 65.8235C190.959 66.0604 191.549 66.1789 192.117 66.1789C192.686 66.1789 193.151 65.9716 193.513 65.5569C193.874 65.1421 194.055 64.6504 194.055 64.0817C194.055 63.507 193.83 63.0123 193.379 62.5976C193.107 62.3488 192.828 62.1799 192.544 62.091C192.26 61.9962 191.987 61.9222 191.726 61.8689C191.466 61.8096 191.27 61.7296 191.14 61.6289C191.016 61.5282 190.953 61.3683 190.953 61.149C190.953 60.9772 191.226 60.7491 191.771 60.4648C192.891 59.8782 193.45 59.111 193.45 58.1631C193.45 57.778 193.314 57.4699 193.042 57.2389C192.775 57.0078 192.429 56.8923 192.002 56.8923C191.575 56.8923 191.084 57.0197 190.527 57.2744C189.97 57.5292 189.597 57.6566 189.407 57.6566C189.129 57.6566 188.989 57.5055 188.989 57.2033C188.989 56.7472 189.268 56.3561 189.825 56.0303C190.553 55.6037 191.41 55.3905 192.393 55.3905ZM201.066 61.3534C201.215 61.3534 201.688 60.9328 202.488 60.0915C202.707 59.8605 202.918 59.6176 203.119 59.3628C203.321 59.1081 203.504 58.9244 203.67 58.8118C203.836 58.6934 204.085 58.6341 204.417 58.6341C205.092 58.6341 205.43 58.7822 205.43 59.0784C205.43 59.1377 205.042 59.6146 204.266 60.5092C203.495 61.3979 203.11 62.0288 203.11 62.4021C203.11 62.5857 203.593 63.35 204.559 64.6948C205.531 66.0397 206.016 66.7181 206.016 66.7299C206.016 66.9847 205.753 67.112 205.225 67.112C204.698 67.112 204.275 66.9758 203.955 66.7032C203.913 66.6677 203.549 66.1108 202.862 65.0325C202.18 63.9543 201.697 63.4152 201.413 63.4152C201.206 63.4152 201.031 63.5722 200.889 63.8862C200.746 64.1942 200.675 64.5793 200.675 65.0414L200.711 65.5124C200.729 65.7494 200.738 65.9034 200.738 65.9745C200.738 66.6795 200.198 67.0321 199.12 67.0321C198.634 67.0321 198.392 66.7269 198.392 66.1167L198.418 65.9034C198.525 65.0266 198.578 64.2061 198.578 63.4418V62.0022L198.587 61.7C198.593 61.4986 198.596 61.2972 198.596 61.0957L198.614 60.4914C198.614 60.29 198.614 60.0886 198.614 59.8871L198.631 58.6874C198.631 57.39 198.608 56.5961 198.56 56.3058C198.513 56.0096 198.46 55.7578 198.4 55.5504C198.347 55.3371 198.32 55.2068 198.32 55.1594V54.9461C198.32 54.8336 198.406 54.7269 198.578 54.6262C198.75 54.5255 198.984 54.4751 199.28 54.4751H199.52C199.959 54.4751 200.249 54.6529 200.391 55.0083C200.498 55.2749 200.551 55.8822 200.551 56.8301V58.6963L200.569 59.816C200.569 60.841 200.735 61.3534 201.066 61.3534Z" fill="#7B7B7B"/>
<path opacity="0.05" d="M218.958 54.9413C218.284 54.9413 217.622 55.1383 217.034 55.5105C215.153 56.7074 214.508 59.3712 215.601 61.4512C216.561 63.2831 220.882 66.6475 222.182 67.6328C222.318 67.7349 222.508 67.7349 222.644 67.6328C223.945 66.6439 228.265 63.2794 229.226 61.4512C230.318 59.3712 229.673 56.7038 227.793 55.5105C227.209 55.1383 226.546 54.9413 225.872 54.9413C224.694 54.9413 223.59 55.5251 222.845 56.5396L222.415 57.1307L221.985 56.5396C221.24 55.5251 220.14 54.9413 218.958 54.9413Z" fill="#838383"/>
<rect x="159.969" y="44.3253" width="84.8889" height="34" rx="17" stroke="#292929" stroke-opacity="0.05" shape-rendering="crispEdges"/>
</g>
<g filter="url(#filter4_d_815_291)">
<rect x="55.9795" y="0.00476074" width="126.567" height="53.3761" rx="26.6881" fill="white" shape-rendering="crispEdges"/>
<path opacity="0.1" d="M89.6667 31.2517C89.6667 28.6009 87.9646 27.2755 84.5604 27.2755L83.7652 27.3034C83.0025 27.3034 82.4677 27.1546 82.1608 26.857C81.8538 26.5594 81.7004 25.8385 81.7004 24.6945C81.7004 23.5505 81.8073 22.3832 82.0213 21.1927C82.2445 19.9928 82.4584 19.2348 82.663 18.9186C82.877 18.6023 83.2257 18.3931 83.7094 18.2908C84.193 18.1885 85.0022 18.1373 86.137 18.1373C87.2717 18.1373 88.132 18.1233 88.718 18.0954L90.0294 18.0117C90.4945 17.9745 90.7782 17.9559 90.8805 17.9559C91.7734 17.9559 92.2198 18.2164 92.2198 18.7372C92.2198 19.5278 91.8292 20.0394 91.0479 20.2719C90.6758 20.3835 89.6992 20.4625 88.1181 20.5091C86.5369 20.5556 85.5975 20.6625 85.2999 20.8299C85.0022 20.9974 84.7325 21.3461 84.4907 21.8763C84.2489 22.4065 84.1279 22.9971 84.1279 23.6481C84.1279 24.2992 84.2023 24.6899 84.3512 24.8201C84.5 24.941 85.0673 25.0014 86.0532 25.0014C89.1133 25.0014 91.1595 26.1036 92.1919 28.308C92.5454 29.0706 92.7221 29.9449 92.7221 30.9308C92.7221 32.8003 92.1454 34.2931 90.9921 35.4093C90.3689 36.0138 89.6295 36.4742 88.7738 36.7905C87.9181 37.116 87.0485 37.2788 86.1649 37.2788H85.7045C84.4488 37.2788 83.3467 37.009 82.398 36.4696C81.4585 35.9301 80.9888 35.3302 80.9888 34.6698C80.9888 34.0002 81.2865 33.6653 81.8817 33.6653C82.1422 33.6653 82.7188 33.87 83.6117 34.2792C84.5139 34.6884 85.4161 34.8931 86.3183 34.8931C87.2205 34.8931 88.0018 34.5629 88.6622 33.9025C89.3319 33.2328 89.6667 32.3492 89.6667 31.2517ZM100.66 27.3174C100.893 27.3174 101.637 26.657 102.893 25.3363C103.237 24.9735 103.567 24.5922 103.883 24.1923C104.2 23.7923 104.488 23.504 104.748 23.3273C105.009 23.1412 105.399 23.0482 105.92 23.0482C106.981 23.0482 107.511 23.2808 107.511 23.7458C107.511 23.8388 106.901 24.5875 105.683 25.992C104.474 27.3872 103.869 28.3777 103.869 28.9637C103.869 29.252 104.627 30.4518 106.143 32.5632C107.669 34.6745 108.431 35.7395 108.431 35.7581C108.431 36.158 108.018 36.358 107.19 36.358C106.362 36.358 105.697 36.1441 105.195 35.7162C105.13 35.6604 104.558 34.7861 103.479 33.0933C102.409 31.4005 101.651 30.5541 101.205 30.5541C100.879 30.5541 100.605 30.8006 100.381 31.2936C100.158 31.7772 100.047 32.3818 100.047 33.1073L100.102 33.8467C100.13 34.2187 100.144 34.4606 100.144 34.5722C100.144 35.679 99.2979 36.2324 97.6051 36.2324C96.8424 36.2324 96.4611 35.7534 96.4611 34.7954L96.5029 34.4606C96.6703 33.084 96.7541 31.7958 96.7541 30.596V28.3359L96.768 27.8615C96.7773 27.5453 96.782 27.229 96.782 26.9128L96.8099 25.9641C96.8099 25.6479 96.8099 25.3316 96.8099 25.0154L96.8378 23.1319C96.8378 21.095 96.8006 19.8487 96.7262 19.3929C96.6517 18.9279 96.568 18.5326 96.475 18.2071C96.3913 17.8722 96.3495 17.6676 96.3495 17.5932V17.2584C96.3495 17.0816 96.4843 16.9142 96.7541 16.7561C97.0238 16.598 97.3912 16.5189 97.8562 16.5189H98.2329C98.9212 16.5189 99.3769 16.798 99.6002 17.356C99.7676 17.7746 99.8513 18.7279 99.8513 20.2161V23.1459L99.8792 24.9038C99.8792 26.5129 100.14 27.3174 100.66 27.3174ZM123.374 28.1684C123.374 28.773 123.239 29.1357 122.969 29.2567C122.699 29.3683 121.885 29.4241 120.527 29.4241C119.169 29.4241 118.458 29.4845 118.393 29.6054C118.337 29.7171 118.309 30.4658 118.309 31.8516C118.309 33.2375 118.244 34.0467 118.114 34.2792C117.984 34.5024 117.667 34.614 117.165 34.614H116.928C116.528 34.614 116.286 34.4373 116.202 34.0839C116.156 33.8886 116.133 33.1119 116.133 31.754C116.133 30.3867 116.1 29.6659 116.035 29.5915C115.979 29.5171 115.263 29.4799 113.887 29.4799C112.51 29.4799 111.71 29.4334 111.487 29.3404C111.264 29.2381 111.152 29.0148 111.152 28.6707V28.4335C111.152 27.8941 111.319 27.5778 111.654 27.4848C111.998 27.3918 112.803 27.3453 114.068 27.3453C115.333 27.3453 115.998 27.2941 116.063 27.1918C116.128 27.0802 116.161 26.378 116.161 25.0852C116.161 23.7923 116.216 22.9971 116.328 22.6994C116.44 22.4018 116.761 22.253 117.291 22.253C117.83 22.253 118.142 22.3693 118.225 22.6018C118.309 22.8343 118.351 23.6481 118.351 25.0433C118.351 26.4384 118.388 27.1639 118.463 27.2197C118.546 27.2755 119.263 27.3034 120.611 27.3034C121.969 27.3034 122.769 27.3406 123.011 27.4151C123.253 27.4802 123.374 27.6522 123.374 27.9313V28.1684Z" fill="black"/>
<path opacity="0.05" d="M142.378 16.6927C141.323 16.6927 140.285 17.0014 139.364 17.5844C136.418 19.4593 135.408 23.6319 137.12 26.89C138.624 29.7595 145.391 35.0296 147.429 36.5729C147.642 36.7329 147.939 36.7329 148.153 36.5729C150.19 35.0239 156.957 29.7537 158.461 26.89C160.173 23.6319 159.163 19.4536 156.217 17.5844C155.302 17.0014 154.264 16.6927 153.209 16.6927C151.362 16.6927 149.634 17.6073 148.467 19.1963L147.793 20.1223L147.12 19.1963C145.953 17.6073 144.23 16.6927 142.378 16.6927Z" fill="black"/>
<rect x="56.6705" y="0.695722" width="125.185" height="51.9942" rx="25.9971" stroke="#292929" stroke-opacity="0.05" stroke-width="1.38192" shape-rendering="crispEdges"/>
</g>
<g opacity="0.6" filter="url(#filter5_f_815_291)">
<rect x="150.157" y="140.099" width="70.7754" height="21" rx="10.5" fill="black" fill-opacity="0.1"/>
</g>
</g>
</g>
<defs>
<filter id="filter0_d_815_291" x="-21.2852" y="24.2094" width="125.889" height="77" filterUnits="userSpaceOnUse" color-interpolation-filters="sRGB">
<feFlood flood-opacity="0" result="BackgroundImageFix"/>
<feColorMatrix in="SourceAlpha" type="matrix" values="0 0 0 0 0 0 0 0 0 0 0 0 0 0 0 0 0 0 127 0" result="hardAlpha"/>
<feOffset dy="1"/>
<feGaussianBlur stdDeviation="10.5"/>
<feComposite in2="hardAlpha" operator="out"/>
<feColorMatrix type="matrix" values="0 0 0 0 0 0 0 0 0 0 0 0 0 0 0 0 0 0 0.07 0"/>
<feBlend mode="normal" in2="BackgroundImageFix" result="effect1_dropShadow_815_291"/>
<feBlend mode="normal" in="SourceGraphic" in2="effect1_dropShadow_815_291" result="shape"/>
</filter>
<filter id="filter1_d_815_291" x="78.8691" y="59.2094" width="123.889" height="77" filterUnits="userSpaceOnUse" color-interpolation-filters="sRGB">
<feFlood flood-opacity="0" result="BackgroundImageFix"/>
<feColorMatrix in="SourceAlpha" type="matrix" values="0 0 0 0 0 0 0 0 0 0 0 0 0 0 0 0 0 0 127 0" result="hardAlpha"/>
<feOffset dy="1"/>
<feGaussianBlur stdDeviation="10.5"/>
<feComposite in2="hardAlpha" operator="out"/>
<feColorMatrix type="matrix" values="0 0 0 0 0 0 0 0 0 0 0 0 0 0 0 0 0 0 0.07 0"/>
<feBlend mode="normal" in2="BackgroundImageFix" result="effect1_dropShadow_815_291"/>
<feBlend mode="normal" in="SourceGraphic" in2="effect1_dropShadow_815_291" result="shape"/>
</filter>
<filter id="filter2_d_815_291" x="10.0586" y="103.599" width="115.889" height="77" filterUnits="userSpaceOnUse" color-interpolation-filters="sRGB">
<feFlood flood-opacity="0" result="BackgroundImageFix"/>
<feColorMatrix in="SourceAlpha" type="matrix" values="0 0 0 0 0 0 0 0 0 0 0 0 0 0 0 0 0 0 127 0" result="hardAlpha"/>
<feOffset dy="1"/>
<feGaussianBlur stdDeviation="10.5"/>
<feComposite in2="hardAlpha" operator="out"/>
<feColorMatrix type="matrix" values="0 0 0 0 0 0 0 0 0 0 0 0 0 0 0 0 0 0 0.07 0"/>
<feBlend mode="normal" in2="BackgroundImageFix" result="effect1_dropShadow_815_291"/>
<feBlend mode="normal" in="SourceGraphic" in2="effect1_dropShadow_815_291" result="shape"/>
</filter>
<filter id="filter3_d_815_291" x="138.469" y="23.8253" width="127.889" height="77" filterUnits="userSpaceOnUse" color-interpolation-filters="sRGB">
<feFlood flood-opacity="0" result="BackgroundImageFix"/>
<feColorMatrix in="SourceAlpha" type="matrix" values="0 0 0 0 0 0 0 0 0 0 0 0 0 0 0 0 0 0 127 0" result="hardAlpha"/>
<feOffset dy="1"/>
<feGaussianBlur stdDeviation="10.5"/>
<feComposite in2="hardAlpha" operator="out"/>
<feColorMatrix type="matrix" values="0 0 0 0 0 0 0 0 0 0 0 0 0 0 0 0 0 0 0.07 0"/>
<feBlend mode="normal" in2="BackgroundImageFix" result="effect1_dropShadow_815_291"/>
<feBlend mode="normal" in="SourceGraphic" in2="effect1_dropShadow_815_291" result="shape"/>
</filter>
<filter id="filter4_d_815_291" x="26.9591" y="-27.6337" width="184.608" height="111.417" filterUnits="userSpaceOnUse" color-interpolation-filters="sRGB">
<feFlood flood-opacity="0" result="BackgroundImageFix"/>
<feColorMatrix in="SourceAlpha" type="matrix" values="0 0 0 0 0 0 0 0 0 0 0 0 0 0 0 0 0 0 127 0" result="hardAlpha"/>
<feOffset dy="1.38192"/>
<feGaussianBlur stdDeviation="14.5102"/>
<feComposite in2="hardAlpha" operator="out"/>
<feColorMatrix type="matrix" values="0 0 0 0 0 0 0 0 0 0 0 0 0 0 0 0 0 0 0.07 0"/>
<feBlend mode="normal" in2="BackgroundImageFix" result="effect1_dropShadow_815_291"/>
<feBlend mode="normal" in="SourceGraphic" in2="effect1_dropShadow_815_291" result="shape"/>
</filter>
<filter id="filter5_f_815_291" x="135.157" y="125.099" width="100.775" height="51" filterUnits="userSpaceOnUse" color-interpolation-filters="sRGB">
<feFlood flood-opacity="0" result="BackgroundImageFix"/>
<feBlend mode="normal" in="SourceGraphic" in2="BackgroundImageFix" result="shape"/>
<feGaussianBlur stdDeviation="7.5" result="effect1_foregroundBlur_815_291"/>
</filter>
<clipPath id="clip0_815_291">
<rect width="245" height="150" fill="white"/>
</clipPath>
</defs>
</svg>
