<svg width="29" height="178" viewBox="0 0 29 178" fill="none" xmlns="http://www.w3.org/2000/svg">
<path opacity="0.5" d="M10.4983 0.312683C9.58834 0.312683 8.69286 0.578917 7.89903 1.0818C5.3578 2.69893 4.48652 6.29802 5.96285 9.10827C7.26009 11.5833 13.0977 16.129 14.8547 17.4601C15.0387 17.5982 15.2952 17.5982 15.4791 17.4601C17.2362 16.124 23.0738 11.5783 24.371 9.10827C25.8474 6.29802 24.9761 2.694 22.4348 1.0818C21.6459 0.578917 20.7504 0.312683 19.8404 0.312683C18.2479 0.312683 16.757 1.10153 15.7502 2.47214L15.1694 3.27084L14.5885 2.47214C13.5817 1.10153 12.0957 0.312683 10.4983 0.312683Z" fill="white"/>
<path d="M3.28032 28.6607C2.94944 28.6607 2.68623 28.7792 2.49071 29.016C2.29895 29.2529 2.20306 29.518 2.20306 29.8113V30.1046C2.20306 30.5558 2.32339 30.9412 2.56403 31.2608C2.80467 31.5804 3.11112 31.7402 3.48336 31.7402H3.57925C3.92141 31.7402 4.20342 31.6048 4.42526 31.3341C4.6471 31.0596 4.75802 30.7288 4.75802 30.3415V30.0877C4.75802 29.7041 4.64898 29.3695 4.4309 29.0837C4.21658 28.7942 3.92893 28.6494 3.56797 28.6494H3.42132C3.36116 28.657 3.31416 28.6607 3.28032 28.6607ZM6.12857 30.082V30.2287C6.12857 31.0296 5.86536 31.6612 5.33895 32.1237C5.09455 32.3381 4.79186 32.4979 4.4309 32.6031C4.07745 32.7084 3.71649 32.7611 3.348 32.7611C2.97952 32.7573 2.61855 32.6727 2.2651 32.5073C1.55069 32.1689 1.09761 31.5954 0.905844 30.787C0.808082 30.3885 0.759201 29.9485 0.759201 29.4673V29.1627C0.762961 28.6024 0.836283 28.0553 0.979165 27.5214C1.26869 26.4498 1.8703 25.7016 2.78399 25.2767C3.34048 25.0172 3.91389 24.8875 4.50422 24.8875C4.8163 24.8875 5.05883 24.9401 5.23179 25.0454C5.40851 25.1469 5.49688 25.2973 5.49688 25.4966C5.49688 25.6959 5.38031 25.8388 5.14719 25.9253C5.09831 25.9441 4.83699 25.9836 4.36322 26.0437C3.51344 26.1528 2.93816 26.4742 2.63735 27.0082C2.54711 27.1699 2.50199 27.3184 2.50199 27.4537C2.50199 27.5853 2.54899 27.6737 2.64299 27.7188C2.74075 27.7602 2.925 27.7809 3.19572 27.7809L3.44388 27.7696C3.61685 27.7621 3.79921 27.7583 3.99097 27.7583C4.18649 27.7583 4.44594 27.8185 4.7693 27.9388C5.67548 28.2847 6.12857 28.9954 6.12857 30.0707V30.082ZM7.51603 31.8417C7.51603 31.3642 7.74539 31.1254 8.20412 31.1254H8.42972C8.48988 31.133 8.535 31.1367 8.56508 31.1367C8.78317 31.1367 8.92981 31.1837 9.00501 31.2777C9.08021 31.3717 9.11781 31.524 9.11781 31.7346V31.994C9.11781 32.464 8.96365 32.9491 8.65532 33.4492C8.347 33.9492 8.06312 34.1993 7.80367 34.1993H7.72471C7.51791 34.1993 7.41451 34.1147 7.41451 33.9455V33.8891C7.41451 33.8853 7.48031 33.7594 7.61191 33.5112C7.74727 33.263 7.81495 33.0525 7.81495 32.8795C7.81495 32.8306 7.76419 32.7065 7.66267 32.5073C7.56491 32.308 7.51603 32.0861 7.51603 31.8417ZM11.7687 29.7549H12.2029L12.2481 29.7493H12.5977C13.2294 29.7493 13.5641 29.7211 13.6017 29.6647C13.6393 29.6045 13.6581 29.2924 13.6581 28.7284V27.5722L13.6637 27.5271V27.3127L13.6694 27.1379V26.8841C13.6694 26.8202 13.66 26.7882 13.6412 26.7882C13.6261 26.7882 13.4588 27.0195 13.1392 27.4819C12.8233 27.9407 12.6297 28.217 12.5583 28.311C12.4868 28.405 12.3063 28.6607 12.0168 29.0781C11.7311 29.4917 11.5882 29.7023 11.5882 29.7098V29.7323C11.5882 29.7474 11.6483 29.7549 11.7687 29.7549ZM15.807 30.2005C15.807 30.4862 15.7036 30.7325 15.4968 30.9393C15.2937 31.1424 15.1922 31.3097 15.1922 31.4413L15.2035 31.8925C15.2035 32.2159 15.1132 32.464 14.9327 32.637C14.8275 32.7385 14.6075 32.7893 14.2729 32.7893C13.942 32.7893 13.7164 32.7216 13.596 32.5862C13.4231 32.3907 13.3366 32.0034 13.3366 31.4244C13.3366 31.2213 13.096 31.0427 12.6147 30.8886C12.3815 30.8134 12.0149 30.7758 11.5148 30.7758C11.0148 30.7758 10.7102 30.7457 10.6012 30.6855C10.4282 30.5915 10.3417 30.4355 10.3417 30.2174V30.1215C10.3417 29.8959 10.4827 29.5763 10.7647 29.1627C11.5694 27.9895 12.4304 26.807 13.3479 25.6151C13.5321 25.3744 13.6957 25.209 13.8386 25.1187C13.9814 25.0247 14.1789 24.9777 14.4308 24.9777H14.5436C14.7692 24.9777 14.9121 25.0999 14.9722 25.3443C14.991 25.4233 15.0004 26.0136 15.0004 27.1153C15.0004 28.217 15.0249 28.8525 15.0737 29.0217C15.1226 29.1871 15.2505 29.4203 15.4573 29.7211C15.4761 29.7474 15.5381 29.8094 15.6434 29.9072C15.7524 30.0012 15.807 30.0989 15.807 30.2005ZM20.8323 26.7826V26.6641C20.8323 26.3896 20.7383 26.149 20.5503 25.9422C20.366 25.7316 20.1141 25.6264 19.7945 25.6264H19.5971C19.3452 25.6264 19.1233 25.711 18.9316 25.8802C18.7398 26.0494 18.6439 26.2674 18.6439 26.5344V26.7262C18.6439 27.0119 18.768 27.2789 19.0162 27.5271C19.2643 27.7752 19.5463 27.8993 19.8622 27.8993H19.9693C20.1799 27.8993 20.3999 27.7508 20.6292 27.4537C20.7646 27.2808 20.8323 27.0571 20.8323 26.7826ZM21.0128 30.6517V30.4655C21.0128 30.0895 20.8473 29.753 20.5164 29.456C20.1893 29.1552 19.8528 29.0048 19.5069 29.0048H19.3771C19.1402 29.0048 18.9128 29.1382 18.6947 29.4052C18.4766 29.6722 18.3676 29.9467 18.3676 30.2287V30.4599C18.3676 30.8773 18.5086 31.2025 18.7906 31.4356C19.0726 31.665 19.4035 31.7797 19.7832 31.7797L19.8283 31.774C20.1517 31.774 20.4299 31.6688 20.6631 31.4582C20.8962 31.2476 21.0128 30.9788 21.0128 30.6517ZM22.1013 26.6528C22.1013 26.9461 22.0468 27.2018 21.9377 27.4199C21.8287 27.6342 21.6802 27.8542 21.4922 28.0798C21.3042 28.3054 21.2102 28.4257 21.2102 28.4408C21.2139 28.4596 21.3286 28.5667 21.5542 28.7622C22.1032 29.2398 22.3777 29.8263 22.3777 30.5219C22.3777 31.2138 22.1069 31.7722 21.5655 32.1971C21.3474 32.37 21.071 32.5091 20.7364 32.6144C20.4055 32.7197 20.0652 32.7723 19.7155 32.7723H19.5802C18.8545 32.7723 18.2416 32.5768 17.7415 32.1858C17.5084 32.0053 17.326 31.7834 17.1944 31.5202C17.0628 31.2533 16.997 30.9882 16.997 30.725V30.4712C16.997 30.1177 17.0854 29.7925 17.2621 29.4955C17.4388 29.1946 17.6682 28.939 17.9502 28.7284C18.078 28.6306 18.142 28.5667 18.142 28.5366C18.1382 28.5066 18.0498 28.3975 17.8769 28.2095C17.4708 27.7696 17.2677 27.2413 17.2677 26.6246C17.2677 26.3878 17.3241 26.149 17.4369 25.9084C17.5535 25.6677 17.7246 25.4553 17.9502 25.271C18.4089 24.8988 18.9842 24.7127 19.6761 24.7127H19.8114C20.1385 24.7127 20.4544 24.7672 20.759 24.8762C21.0673 24.9815 21.3173 25.1206 21.5091 25.2936C21.9039 25.6508 22.1013 26.1039 22.1013 26.6528ZM26.2298 24.8311C27.5609 24.8311 28.2264 25.3913 28.2264 26.5118C28.2264 26.9706 28.0441 27.4349 27.6793 27.9049C27.4801 28.1606 27.3804 28.296 27.3804 28.311C27.3804 28.3599 27.5083 28.469 27.7639 28.6382C28.3768 29.0442 28.6833 29.6383 28.6833 30.4204C28.6833 31.0822 28.4144 31.6349 27.8767 32.0786C27.6098 32.3005 27.2977 32.4715 26.9405 32.5919C26.587 32.7122 26.2392 32.7723 25.8971 32.7723H25.7166C25.1451 32.7723 24.6563 32.652 24.2502 32.4114C23.8478 32.167 23.6467 31.8981 23.6467 31.6048C23.6467 31.4544 23.688 31.3322 23.7708 31.2382C23.8535 31.1442 23.9851 31.0972 24.1656 31.0972C24.3498 31.0972 24.6262 31.1875 24.9947 31.368C25.3631 31.5484 25.7091 31.6387 26.0324 31.6387C26.3558 31.6387 26.6303 31.5315 26.8559 31.3172C27.0853 31.0991 27.1999 30.8134 27.1999 30.4599C27.1999 30.1065 27.0796 29.8038 26.839 29.5519C26.5983 29.2999 26.2543 29.1458 25.8068 29.0894C25.5511 29.0518 25.3951 29.016 25.3387 28.9822C25.1845 28.892 25.1075 28.7472 25.1075 28.5479C25.1075 28.3449 25.2767 28.1794 25.6151 28.0516C25.9572 27.92 26.2223 27.7564 26.4103 27.5609C26.6886 27.2751 26.8277 26.9537 26.8277 26.5964C26.8277 26.4197 26.7431 26.2731 26.5739 26.1565C26.4047 26.04 26.2167 25.9817 26.0099 25.9817C25.8031 25.9817 25.5154 26.055 25.1469 26.2016C24.7785 26.3483 24.5059 26.4216 24.3291 26.4216C24.017 26.4216 23.861 26.2881 23.861 26.0212C23.861 25.7316 24.0415 25.4797 24.4025 25.2654C24.8875 24.9759 25.4346 24.8311 26.0437 24.8311H26.2298Z" fill="white"/>
<path opacity="0.5" d="M5.67122 80.2119C5.67122 80.7715 5.89353 81.3083 6.28926 81.704C6.685 82.0997 7.22172 82.322 7.78137 82.322H20.4423L24.6626 86.5423V69.6611C24.6626 69.1015 24.4403 68.5647 24.0445 68.169C23.6488 67.7733 23.1121 67.551 22.5524 67.551H7.78137C7.22172 67.551 6.685 67.7733 6.28926 68.169C5.89353 68.5647 5.67122 69.1015 5.67122 69.6611V80.2119Z" fill="white"/>
<path d="M8.28032 97.6394C7.94944 97.6394 7.68623 97.7579 7.49071 97.9947C7.29895 98.2316 7.20306 98.4967 7.20306 98.79V99.0833C7.20306 99.5345 7.32339 99.9199 7.56403 100.239C7.80467 100.559 8.11112 100.719 8.48336 100.719H8.57925C8.92141 100.719 9.20342 100.584 9.42526 100.313C9.6471 100.038 9.75802 99.7074 9.75802 99.3202V99.0664C9.75802 98.6828 9.64898 98.3482 9.4309 98.0624C9.21658 97.7729 8.92893 97.6281 8.56797 97.6281H8.42132C8.36116 97.6357 8.31416 97.6394 8.28032 97.6394ZM11.1286 99.0607V99.2074C11.1286 100.008 10.8654 100.64 10.339 101.102C10.0945 101.317 9.79186 101.477 9.4309 101.582C9.07745 101.687 8.71649 101.74 8.348 101.74C7.97952 101.736 7.61855 101.651 7.2651 101.486C6.55069 101.148 6.09761 100.574 5.90584 99.7657C5.80808 99.3672 5.7592 98.9272 5.7592 98.446V98.1414C5.76296 97.5811 5.83628 97.034 5.97916 96.5001C6.26869 95.4285 6.8703 94.6803 7.78399 94.2554C8.34048 93.9959 8.91389 93.8662 9.50422 93.8662C9.8163 93.8662 10.0588 93.9188 10.2318 94.0241C10.4085 94.1256 10.4969 94.276 10.4969 94.4753C10.4969 94.6746 10.3803 94.8175 10.1472 94.904C10.0983 94.9228 9.83699 94.9623 9.36322 95.0224C8.51344 95.1315 7.93816 95.4529 7.63735 95.9869C7.54711 96.1486 7.50199 96.2971 7.50199 96.4324C7.50199 96.564 7.54899 96.6524 7.64299 96.6975C7.74075 96.7389 7.925 96.7596 8.19572 96.7596L8.44388 96.7483C8.61685 96.7408 8.79921 96.737 8.99097 96.737C9.18649 96.737 9.44594 96.7972 9.7693 96.9175C10.6755 97.2634 11.1286 97.9741 11.1286 99.0494V99.0607ZM13.9712 101.728H13.8358C13.456 101.728 13.2662 101.604 13.2662 101.356C13.2662 101.067 13.6252 100.053 14.3434 98.3162C14.5201 97.8913 14.7645 97.3443 15.0766 96.675C15.3887 96.0057 15.5448 95.5958 15.5448 95.4454C15.5448 95.2913 15.4714 95.1879 15.3248 95.1352C15.1781 95.0826 14.8999 95.0563 14.4901 95.0563C14.0802 95.0563 13.7098 95.1089 13.379 95.2142C13.0481 95.3157 12.8074 95.3665 12.657 95.3665C12.3487 95.3665 12.1945 95.1747 12.1945 94.7912C12.1945 94.4076 12.3205 94.1463 12.5724 94.0072C12.7454 93.9132 13.1158 93.8662 13.6835 93.8662H14.8003C16.0148 93.8662 16.7179 93.9019 16.9097 93.9734C17.1014 94.041 17.1973 94.2084 17.1973 94.4753C17.1973 94.7423 16.9266 95.4717 16.3851 96.6637C15.8437 97.8519 15.4263 98.9216 15.133 99.8729C14.8435 100.82 14.6912 101.311 14.6762 101.345C14.5559 101.601 14.3209 101.728 13.9712 101.728ZM19.6677 96.3196V96.4212C19.6677 96.8724 19.7861 97.2296 20.023 97.4928C20.2636 97.756 20.5607 97.8876 20.9141 97.8876H20.9649L21.01 97.8819C21.3747 97.8819 21.668 97.7804 21.8899 97.5774C22.1155 97.3706 22.2283 97.0792 22.2283 96.7032V96.5565L22.2226 96.5058V96.4099C22.2151 96.3422 22.2113 96.2933 22.2113 96.2632C22.2113 95.9361 22.0948 95.6184 21.8617 95.3101C21.6323 95.0017 21.3597 94.8476 21.0438 94.8476H20.8013C20.4667 94.8476 20.1941 94.9886 19.9835 95.2706C19.7729 95.5488 19.6677 95.8985 19.6677 96.3196ZM21.3033 98.7562C21.2394 98.7562 21.1491 98.7637 21.0326 98.7787C20.9198 98.7938 20.7374 98.8013 20.4855 98.8013C20.2373 98.8013 19.9666 98.7374 19.6733 98.6095C18.7558 98.2109 18.2952 97.4627 18.2915 96.3648C18.2915 95.5827 18.5415 94.9604 19.0416 94.4979C19.271 94.2873 19.5511 94.1256 19.882 94.0128C20.2129 93.9 20.5475 93.8436 20.8859 93.8436H21.0382C21.8429 93.8436 22.4952 94.1181 22.9953 94.6671C23.2247 94.919 23.3976 95.2461 23.5142 95.6485C23.6345 96.0508 23.6947 96.4531 23.6947 96.8554V97.3236C23.6947 97.9064 23.612 98.4873 23.4465 99.0664C23.2811 99.6416 23.0592 100.102 22.781 100.448C22.5027 100.794 22.1098 101.091 21.6022 101.339C21.0984 101.584 20.587 101.706 20.0681 101.706H19.944C19.6357 101.706 19.3857 101.657 19.1939 101.559C19.0021 101.465 18.9062 101.328 18.9062 101.148C18.9062 100.963 19.0209 100.822 19.2503 100.725C19.2766 100.713 19.5285 100.672 20.0061 100.6C20.4874 100.529 20.8577 100.411 21.1172 100.245C21.3766 100.076 21.5684 99.8842 21.6925 99.6698C21.8203 99.4518 21.8842 99.2581 21.8842 99.0889C21.8842 98.8671 21.6906 98.7562 21.3033 98.7562Z" fill="white"/>
<path opacity="0.5" fill-rule="evenodd" clip-rule="evenodd" d="M22.4412 138.078C22.817 137.703 22.4243 137.078 21.9227 137.253L6.86121 142.525C6.43398 142.674 6.40971 143.269 6.82333 143.453L13.601 146.465C13.79 146.549 14.0112 146.508 14.1574 146.362L22.4412 138.078ZM14.7271 147.379C14.6431 147.19 14.6841 146.969 14.8304 146.822L23.1142 138.539C23.49 138.163 24.1149 138.555 23.9393 139.057L18.6678 154.119C18.5182 154.546 17.9232 154.57 17.7394 154.156L14.7271 147.379Z" fill="white"/>
<path d="M9.82885 164.708C9.55813 164.708 9.42276 164.514 9.42276 164.127C9.42276 163.736 9.66341 163.379 10.1447 163.055C10.6297 162.728 11.1806 162.565 11.7972 162.565H11.9834C12.6639 162.565 13.2204 162.753 13.6528 163.129C14.0852 163.505 14.3014 163.997 14.3014 164.606C14.3014 165.212 14.1304 165.74 13.7882 166.191C13.4498 166.642 12.9365 167.156 12.2484 167.731C11.5641 168.302 11.222 168.69 11.222 168.893C11.222 169.036 11.457 169.107 11.927 169.107C12.397 169.107 12.8012 169.073 13.1396 169.005C13.478 168.938 13.7318 168.904 13.901 168.904C14.0702 168.904 14.1999 168.955 14.2902 169.056C14.3804 169.154 14.4255 169.276 14.4255 169.423V169.575C14.4255 169.895 14.2676 170.109 13.9518 170.218C13.745 170.29 13.2862 170.325 12.5756 170.325H12.2146L12.0341 170.32H11.8536C10.5151 170.32 9.76493 170.291 9.60325 170.235C9.44532 170.175 9.36636 170.036 9.36636 169.818V169.66C9.36636 169.333 9.59761 168.885 10.0601 168.317C10.2255 168.114 10.5978 167.736 11.1768 167.184C11.7596 166.627 12.1319 166.244 12.2936 166.033C12.6245 165.605 12.7899 165.217 12.7899 164.871C12.7899 164.525 12.7015 164.249 12.5248 164.042C12.3518 163.832 12.0943 163.726 11.7521 163.726C11.4137 163.726 11.0866 163.86 10.7707 164.127C10.3158 164.514 10.0018 164.708 9.82885 164.708ZM15.7284 169.378C15.7284 169.205 15.7754 169.073 15.8694 168.983C15.9671 168.889 16.0762 168.842 16.1965 168.842C16.3206 168.842 16.5857 168.934 16.9918 169.118C17.4016 169.303 17.7588 169.395 18.0634 169.395C18.4958 169.395 18.838 169.239 19.0899 168.927C19.2741 168.697 19.3662 168.359 19.3662 167.911C19.3662 167.742 19.3249 167.556 19.2422 167.353C19.0241 166.823 18.4676 166.558 17.5727 166.558L17.4035 166.569L17.2286 166.586C17.0895 166.597 16.9767 166.603 16.8902 166.603C16.5594 166.603 16.3356 166.522 16.2191 166.36C16.1025 166.195 16.0442 165.896 16.0442 165.464C16.0442 164.591 16.11 163.871 16.2416 163.303C16.2868 163.104 16.345 162.965 16.4165 162.886C16.5706 162.713 17.1252 162.627 18.0803 162.627C18.3285 162.627 18.5729 162.623 18.8135 162.615L19.1745 162.598C19.4941 162.583 19.6746 162.576 19.7159 162.576L19.8908 162.581H20.0656C20.3551 162.581 20.4999 162.681 20.4999 162.88C20.4999 163.294 20.3815 163.565 20.1446 163.693C20.0167 163.76 19.5862 163.794 18.853 163.794C18.1198 163.794 17.693 163.828 17.5727 163.896C17.3433 164.023 17.2286 164.362 17.2286 164.911C17.2286 165.268 17.3264 165.447 17.5219 165.447L17.866 165.424C17.9863 165.417 18.1668 165.413 18.4074 165.413C18.6518 165.413 18.932 165.473 19.2478 165.593C19.8832 165.83 20.3269 166.216 20.5789 166.749C20.7405 167.092 20.8214 167.462 20.8214 167.861C20.8214 168.684 20.5601 169.333 20.0374 169.806C19.5148 170.276 18.838 170.511 18.007 170.511H17.8209C17.238 170.511 16.7436 170.393 16.3375 170.156C15.9314 169.919 15.7284 169.66 15.7284 169.378Z" fill="white"/>
</svg>
